<svg width="81" height="81" viewBox="0 0 81 81" fill="none" xmlns="http://www.w3.org/2000/svg">
<g filter="url(#filter0_d_113_2099)">
<path d="M6.05469 12.5362C6.05469 8.92635 8.98104 6 12.5909 6H63.5731C67.1829 6 70.1093 8.92635 70.1093 12.5362V63.5184C70.1093 67.1283 67.1829 70.0546 63.5731 70.0546H12.5909C8.98104 70.0546 6.05469 67.1283 6.05469 63.5184V12.5362Z" fill="#F7F0F0"/>
<path d="M12.5909 3.33106C7.50702 3.33106 3.38575 7.45233 3.38575 12.5362V63.5184C3.38575 68.6023 7.50702 72.7236 12.5909 72.7236H63.5731C68.657 72.7236 72.7782 68.6023 72.7782 63.5184V12.5362C72.7782 7.45233 68.657 3.33106 63.5731 3.33106H12.5909Z" stroke="black" stroke-width="5.33788"/>
</g>
<path d="M43.9646 38.0271C43.9646 41.276 41.3309 43.9097 38.082 43.9097C34.8332 43.9097 32.1995 41.276 32.1995 38.0271C32.1995 34.7782 34.8332 32.1445 38.082 32.1445C41.3309 32.1445 43.9646 34.7782 43.9646 38.0271Z" fill="black"/>
<defs>
<filter id="filter0_d_113_2099" x="0.716797" y="0.662109" width="80.0682" height="80.0684" filterUnits="userSpaceOnUse" color-interpolation-filters="sRGB">
<feFlood flood-opacity="0" result="BackgroundImageFix"/>
<feColorMatrix in="SourceAlpha" type="matrix" values="0 0 0 0 0 0 0 0 0 0 0 0 0 0 0 0 0 0 127 0" result="hardAlpha"/>
<feOffset dx="5.33788" dy="5.33788"/>
<feColorMatrix type="matrix" values="0 0 0 0 0 0 0 0 0 0 0 0 0 0 0 0 0 0 1 0"/>
<feBlend mode="normal" in2="BackgroundImageFix" result="effect1_dropShadow_113_2099"/>
<feBlend mode="normal" in="SourceGraphic" in2="effect1_dropShadow_113_2099" result="shape"/>
</filter>
</defs>
</svg>
