<svg width="81" height="81" viewBox="0 0 81 81" fill="none" xmlns="http://www.w3.org/2000/svg">
<g filter="url(#filter0_d_113_2102)">
<path d="M6 12.5362C6 8.92635 8.92635 6 12.5362 6H63.5184C67.1283 6 70.0546 8.92635 70.0546 12.5362V63.5184C70.0546 67.1283 67.1283 70.0546 63.5184 70.0546H12.5362C8.92635 70.0546 6 67.1283 6 63.5184V12.5362Z" fill="white"/>
<path d="M12.5362 3.33106C7.45233 3.33106 3.33106 7.45233 3.33106 12.5362V63.5184C3.33106 68.6023 7.45233 72.7236 12.5362 72.7236H63.5184C68.6023 72.7236 72.7236 68.6023 72.7236 63.5184V12.5362C72.7236 7.45233 68.6023 3.33106 63.5184 3.33106H12.5362Z" stroke="black" stroke-width="5.33788"/>
</g>
<path d="M26.2622 20.3796C26.2622 23.6285 23.6285 26.2622 20.3796 26.2622C17.1308 26.2622 14.4971 23.6285 14.4971 20.3796C14.4971 17.1308 17.1308 14.4971 20.3796 14.4971C23.6285 14.4971 26.2622 17.1308 26.2622 20.3796Z" fill="black"/>
<path d="M26.2622 55.675C26.2622 58.9239 23.6285 61.5576 20.3796 61.5576C17.1308 61.5576 14.4971 58.9239 14.4971 55.675C14.4971 52.4262 17.1308 49.7925 20.3796 49.7925C23.6285 49.7925 26.2622 52.4262 26.2622 55.675Z" fill="black"/>
<path d="M61.5576 20.3796C61.5576 23.6285 58.9239 26.2622 55.675 26.2622C52.4262 26.2622 49.7925 23.6285 49.7925 20.3796C49.7925 17.1308 52.4262 14.4971 55.675 14.4971C58.9239 14.4971 61.5576 17.1308 61.5576 20.3796Z" fill="black"/>
<path d="M61.5576 55.675C61.5576 58.9239 58.9239 61.5576 55.675 61.5576C52.4262 61.5576 49.7925 58.9239 49.7925 55.675C49.7925 52.4262 52.4262 49.7925 55.675 49.7925C58.9239 49.7925 61.5576 52.4262 61.5576 55.675Z" fill="black"/>
<defs>
<filter id="filter0_d_113_2102" x="0.662109" y="0.662109" width="80.0682" height="80.0684" filterUnits="userSpaceOnUse" color-interpolation-filters="sRGB">
<feFlood flood-opacity="0" result="BackgroundImageFix"/>
<feColorMatrix in="SourceAlpha" type="matrix" values="0 0 0 0 0 0 0 0 0 0 0 0 0 0 0 0 0 0 127 0" result="hardAlpha"/>
<feOffset dx="5.33788" dy="5.33788"/>
<feColorMatrix type="matrix" values="0 0 0 0 0 0 0 0 0 0 0 0 0 0 0 0 0 0 1 0"/>
<feBlend mode="normal" in2="BackgroundImageFix" result="effect1_dropShadow_113_2102"/>
<feBlend mode="normal" in="SourceGraphic" in2="effect1_dropShadow_113_2102" result="shape"/>
</filter>
</defs>
</svg>
