<svg width="79" height="79" viewBox="0 0 79 79" fill="none" xmlns="http://www.w3.org/2000/svg">
<g filter="url(#filter0_d_113_2103)">
<path d="M6 12.3135C6 8.82663 8.82663 6 12.3135 6L61.5585 6C65.0453 6 67.8719 8.82663 67.8719 12.3135V61.5585C67.8719 65.0453 65.0453 67.8719 61.5585 67.8719H12.3135C8.82663 67.8719 6 65.0453 6 61.5585L6 12.3135Z" fill="white"/>
<path d="M12.3135 3.422C7.40284 3.422 3.422 7.40285 3.422 12.3135L3.422 61.5585C3.422 66.4691 7.40285 70.4499 12.3135 70.4499H61.5585C66.4691 70.4499 70.4499 66.4691 70.4499 61.5585V12.3135C70.4499 7.40285 66.4691 3.422 61.5585 3.422L12.3135 3.422Z" stroke="black" stroke-width="5.15599"/>
</g>
<path d="M25.5718 19.8896C25.5718 23.0278 23.0278 25.5718 19.8896 25.5718C16.7515 25.5718 14.2075 23.0278 14.2075 19.8896C14.2075 16.7515 16.7515 14.2075 19.8896 14.2075C23.0278 14.2075 25.5718 16.7515 25.5718 19.8896Z" fill="black"/>
<path d="M42.6181 36.936C42.6181 40.0742 40.0742 42.6181 36.936 42.6181C33.7979 42.6181 31.2539 40.0742 31.2539 36.936C31.2539 33.7979 33.7979 31.2539 36.936 31.2539C40.0742 31.2539 42.6181 33.7979 42.6181 36.936Z" fill="black"/>
<path d="M25.5718 53.9824C25.5718 57.1206 23.0278 59.6645 19.8896 59.6645C16.7515 59.6645 14.2075 57.1206 14.2075 53.9824C14.2075 50.8442 16.7515 48.3003 19.8896 48.3003C23.0278 48.3003 25.5718 50.8442 25.5718 53.9824Z" fill="black"/>
<path d="M59.6644 19.8896C59.6644 23.0278 57.1205 25.5718 53.9823 25.5718C50.8441 25.5718 48.3002 23.0278 48.3002 19.8896C48.3002 16.7515 50.8441 14.2075 53.9823 14.2075C57.1205 14.2075 59.6644 16.7515 59.6644 19.8896Z" fill="black"/>
<path d="M59.6644 53.9824C59.6644 57.1206 57.1205 59.6645 53.9823 59.6645C50.8441 59.6645 48.3002 57.1206 48.3002 53.9824C48.3002 50.8442 50.8441 48.3003 53.9823 48.3003C57.1205 48.3003 59.6644 50.8442 59.6644 53.9824Z" fill="black"/>
<defs>
<filter id="filter0_d_113_2103" x="0.843994" y="0.844238" width="77.34" height="77.3396" filterUnits="userSpaceOnUse" color-interpolation-filters="sRGB">
<feFlood flood-opacity="0" result="BackgroundImageFix"/>
<feColorMatrix in="SourceAlpha" type="matrix" values="0 0 0 0 0 0 0 0 0 0 0 0 0 0 0 0 0 0 127 0" result="hardAlpha"/>
<feOffset dx="5.15599" dy="5.15599"/>
<feColorMatrix type="matrix" values="0 0 0 0 0 0 0 0 0 0 0 0 0 0 0 0 0 0 1 0"/>
<feBlend mode="normal" in2="BackgroundImageFix" result="effect1_dropShadow_113_2103"/>
<feBlend mode="normal" in="SourceGraphic" in2="effect1_dropShadow_113_2103" result="shape"/>
</filter>
</defs>
</svg>
