<svg width="169" height="162" viewBox="0 0 169 162" fill="none" xmlns="http://www.w3.org/2000/svg">
<path d="M5.10217 68.4921C22.7874 64.6633 41.8945 64.3783 61.0708 67.5584C80.3881 70.7394 99.7493 77.2469 117.834 86.7946C127.965 92.1303 137.71 98.4334 146.702 105.632C149.422 107.799 152.315 104.354 149.595 102.187C132.8 88.9065 113.941 78.5913 94.3125 71.389C74.85 64.3265 54.585 60.5846 35.0366 60.3816C24.0346 60.3064 13.3184 61.4111 2.94592 63.6268C-0.0052113 64.4382 2.1257 69.1647 5.10217 68.4921Z" fill="#AE9AFF"/>
<path d="M128.902 68.7152C139.866 80.1544 147.984 94.1381 151.946 108.509C153.089 107.824 154.149 107.069 155.292 106.384C143.019 100.895 130.263 96.9965 117.578 95.0388C116.2 94.8215 114.975 95.4368 114.863 96.7526C114.725 97.9296 115.792 99.5307 117.17 99.748C129.431 101.703 141.714 105.321 153.596 110.599C155.274 111.304 157.52 110.487 156.941 108.474C152.527 92.7832 143.808 77.8254 131.712 65.2004C130.746 64.1544 128.88 64.3495 128.186 65.1763C127.401 66.2797 127.853 67.5993 128.902 68.7152Z" fill="#AE9AFF"/>
</svg>
