<svg width="148" height="86" viewBox="0 0 148 86" fill="none" xmlns="http://www.w3.org/2000/svg">
<path d="M5.16083 84.9456C16.2419 70.4721 30.6907 57.8192 47.4209 47.8062C64.2597 37.702 83.2713 30.1467 103.261 25.7774C114.45 23.3196 125.966 21.8632 137.481 21.5901C140.958 21.4991 140.958 16.9477 137.481 17.0387C116.08 17.6759 95.0041 21.9542 75.3407 29.1454C55.8946 36.3366 37.9694 46.6228 22.8688 59.1847C14.395 66.2848 6.89904 74.1133 0.380787 82.5789C-1.35741 85.1277 3.31399 87.4033 5.16083 84.9456Z" fill="#AE9AFF"/>
<path d="M100.11 4.56786C115.863 6.29739 131.072 11.8501 143.348 20.4068C143.782 19.1324 144.108 17.858 144.543 16.5836C131.615 20.3157 119.339 25.5953 108.367 32.3314C107.172 33.0596 106.628 34.334 107.389 35.4264C108.041 36.4277 109.887 36.9738 111.083 36.2456C121.729 29.7826 133.462 24.594 145.955 20.9529C147.693 20.4067 148.888 18.3131 147.15 17.1297C133.679 7.84488 117.384 1.92804 100.001 0.016455C98.5892 -0.165601 97.2856 1.19982 97.2856 2.29216C97.3942 3.65758 98.5892 4.3858 100.11 4.56786Z" fill="#AE9AFF"/>
</svg>
