<svg width="169" height="164" viewBox="0 0 169 164" fill="none" xmlns="http://www.w3.org/2000/svg">
<path d="M164.255 68.3276C146.385 64.7031 127.161 64.6662 107.94 68.1201C88.5779 71.5767 69.2423 78.384 51.2551 88.2365C41.1783 93.7427 31.5113 100.218 22.6198 107.586C19.93 109.804 16.9469 106.372 19.6368 104.155C36.2465 90.5594 54.9961 79.9238 74.5862 72.4132C94.0119 65.0456 114.315 61.0117 133.973 60.5513C145.038 60.3315 155.84 61.3037 166.32 63.3994C169.306 64.1779 167.263 68.966 164.255 68.3276Z" fill="#AE9AFF"/>
<path d="M39.7379 70.1735C28.9534 81.8377 21.0856 96.0271 17.4058 110.552C16.2418 109.877 15.16 109.131 13.9959 108.456C26.223 102.767 38.9712 98.6738 51.6875 96.5361C53.0689 96.2992 54.3152 96.9028 54.4557 98.2265C54.6188 99.4102 53.5795 101.037 52.1981 101.273C39.9073 103.403 27.6298 107.207 15.7911 112.679C14.1181 113.41 11.8418 112.618 12.3813 110.582C16.4879 94.7221 24.939 79.5437 36.8371 66.6705C37.7863 65.6044 39.6675 65.7764 40.3834 66.6C41.1961 67.7009 40.7693 69.0359 39.7379 70.1735Z" fill="#AE9AFF"/>
</svg>
