<svg width="149" height="86" viewBox="0 0 149 86" fill="none" xmlns="http://www.w3.org/2000/svg">
<path d="M143.691 84.8808C132.582 70.4219 118.098 57.7816 101.326 47.7786C84.4454 37.6846 65.3867 30.1368 45.3477 25.7718C34.1303 23.3165 22.5861 21.8615 11.0419 21.5887C7.5569 21.4978 7.5569 16.9509 11.0419 17.0419C32.4967 17.6784 53.6247 21.9525 73.3369 29.1365C92.8313 36.3205 110.801 46.5964 125.939 59.1457C134.434 66.2388 141.949 74.0594 148.483 82.5165C150.225 85.0627 145.542 87.3361 143.691 84.8808Z" fill="#AE9AFF"/>
<path d="M48.506 4.58355C32.7144 6.31135 17.4674 11.8585 5.16089 20.4066C4.72526 19.1335 4.39853 17.8604 3.96291 16.5872C16.9229 20.3157 29.2294 25.59 40.2291 32.3193C41.427 33.0468 41.9716 34.32 41.2092 35.4112C40.5558 36.4115 38.7044 36.9571 37.5064 36.2296C26.8335 29.7731 15.0715 24.5897 2.54712 20.9522C0.804609 20.4066 -0.393378 18.3151 1.34914 17.1329C14.8536 7.8573 31.1897 1.94638 48.6149 0.0367022C50.0307 -0.145172 51.3376 1.21888 51.3376 2.31013C51.2287 3.67418 50.0307 4.40168 48.506 4.58355Z" fill="#AE9AFF"/>
</svg>
