<svg width="673" height="127" viewBox="0 0 673 127" fill="none" xmlns="http://www.w3.org/2000/svg">
<g filter="url(#filter0_ddd_41_1031)">
<path d="M175.611 32.6992C174.117 30.3703 174.726 29.1586 177.436 29.064L184.694 28.8105C186.132 28.7603 187.438 29.6699 188.61 31.5392L197.983 46.6193C198.246 47.0254 199.024 48.2995 200.317 50.4415C201.609 52.5559 202.388 54.6329 202.653 56.6724L202.819 56.6666C202.941 54.6136 203.573 52.4874 204.714 50.288C205.854 48.061 206.542 46.7357 206.776 46.3122L215.074 30.6151C216.113 28.6685 217.352 27.6701 218.79 27.6198L226.049 27.3664C228.759 27.2717 229.45 28.4381 228.123 30.8654L209.115 65.7078L209.795 85.2027C209.849 86.7236 208.907 87.5178 206.972 87.5854L200.667 87.8056C198.731 87.8732 197.737 87.1465 197.684 85.6257L197.003 66.1307L175.611 32.6992Z" fill="#C7B9FF"/>
</g>
<g filter="url(#filter1_ddd_41_1031)">
<path d="M224.267 76.6694C224.085 71.4642 226.439 67.6037 231.328 65.0878C236.217 62.5719 241.847 61.1245 248.218 60.7457L248.164 59.1841C248.08 56.7897 247.422 55.119 246.191 54.1718C244.959 53.2246 243.276 52.7883 241.142 52.8628C239.632 52.9155 238.3 53.1836 237.144 53.6669C236.014 54.1233 235.029 54.6528 234.19 55.2553C233.376 55.831 232.641 56.4169 231.984 57.0131C230.824 58.0959 229.836 58.1825 229.023 57.2728L225.644 53.404C224.802 52.4432 224.962 51.4214 226.123 50.3386C227.006 49.5 228.035 48.7605 229.211 48.1201C230.414 47.4788 232.008 46.8628 233.994 46.2724C235.978 45.6558 238.571 45.2917 241.773 45.1799C247.186 44.9908 251.381 46.0951 254.357 48.4927C257.359 50.8894 258.945 54.5212 259.115 59.388L259.975 84.0214C260.03 85.583 259.276 86.391 257.715 86.4455L251.312 86.6691C249.907 86.7182 249.177 85.9619 249.122 84.4004L249.082 83.2292L249.004 83.232C247.52 84.7691 245.71 85.9267 243.575 86.7048C241.464 87.456 239.511 87.8629 237.715 87.9257C233.447 88.0747 230.17 87.1468 227.885 85.142C225.6 83.1112 224.394 80.287 224.267 76.6694ZM235.814 76.0316C235.846 76.9425 236.056 77.7299 236.444 78.3939C236.831 79.0318 237.421 79.4933 238.212 79.7783C239.004 80.0634 239.881 80.1891 240.844 80.1555C242.172 80.1091 243.454 79.8819 244.69 79.474C245.927 79.066 247.289 78.1585 248.777 76.7515L248.481 68.2801C244.126 68.9273 241.221 69.6672 239.764 70.4998C238.308 71.3323 237.269 72.1764 236.648 73.032C236.052 73.8866 235.775 74.8865 235.814 76.0316Z" fill="#FF8577"/>
</g>
<g filter="url(#filter2_ddd_41_1031)">
<path d="M386.065 68.0235C385.835 61.439 387.294 56.1896 390.44 52.2753C393.613 48.3601 398.205 46.2975 404.217 46.0876C411.192 45.844 416.434 47.4589 419.943 50.9324C423.451 54.4058 425.345 60.1244 425.623 68.0883C425.677 69.6499 424.976 70.4561 423.519 70.507L397.753 71.4067C398.32 75.7125 399.482 78.3949 401.239 79.454C402.996 80.5132 405.006 81.0032 407.271 80.9241C409.431 80.8487 411.073 80.5047 412.199 79.8921C413.324 79.2796 414.259 78.4652 415.006 77.4489C415.85 76.2729 416.937 76.0525 418.266 76.7879L422.253 79.0329C423.821 79.9162 424.081 81.0276 423.034 82.3671C421.512 84.3224 419.701 85.8058 417.6 86.8172C415.498 87.8287 412.144 88.4148 407.538 88.5757C400.068 88.8365 394.68 87.1225 391.372 83.4336C388.064 79.7447 386.295 74.608 386.065 68.0235ZM397.519 63.5976L414.501 63.0046C414.403 60.1938 413.62 57.9281 412.153 56.2074C410.685 54.4607 408.415 53.641 405.344 53.7482C402.898 53.8337 400.989 54.7602 399.618 56.5279C398.245 58.2696 397.546 60.6261 397.519 63.5976Z" fill="#C7B9FF"/>
</g>
<g filter="url(#filter3_ddd_41_1031)">
<path d="M476.575 30.3615C476.441 28.192 477.417 27.0708 479.501 26.998L486.45 26.7554C488.535 26.6826 489.586 27.7329 489.604 29.9065L489.757 67.9057C489.765 69.7898 488.857 70.7636 487.033 70.8273L481.995 71.0032C480.171 71.0669 479.197 70.1588 479.073 68.2788L476.575 30.3615ZM481.85 89.2714C479.823 89.3421 478.772 88.2918 478.696 86.1202L478.493 80.3005C478.417 78.129 479.392 77.0079 481.419 76.9371L488.021 76.7066C490.047 76.6358 491.099 77.6862 491.175 79.8577L491.378 85.6774C491.454 87.8489 490.478 88.9701 488.451 89.0408L481.85 89.2714Z" fill="#699BF7"/>
</g>
<g filter="url(#filter4_ddd_41_1031)">
<path d="M430.347 68.423C430.117 61.8385 431.575 56.5891 434.722 52.6748C437.894 48.7596 442.486 46.6971 448.498 46.4871C455.473 46.2436 460.715 47.8585 464.224 51.3319C467.733 54.8053 469.626 60.524 469.904 68.4879C469.959 70.0494 469.257 70.8556 467.8 70.9065L442.034 71.8063C442.602 76.112 443.764 78.7945 445.52 79.8536C447.277 80.9127 449.288 81.4027 451.552 81.3237C453.712 81.2482 455.355 80.9042 456.48 80.2917C457.605 79.6791 458.541 78.8647 459.287 77.8485C460.132 76.6724 461.219 76.4521 462.547 77.1874L466.534 79.4325C468.102 80.3158 468.363 81.4271 467.315 82.7666C465.794 84.7219 463.983 86.2053 461.881 87.2168C459.78 88.2282 456.426 88.8144 451.819 88.9752C444.35 89.2361 438.961 87.5221 435.653 83.8332C432.345 80.1443 430.577 75.0076 430.347 68.423ZM441.801 63.9972L458.783 63.4042C458.684 60.5934 457.902 58.3276 456.435 56.607C454.966 54.8603 452.697 54.0405 449.626 54.1478C447.179 54.2332 445.27 55.1598 443.899 56.9274C442.527 58.6691 441.827 61.0257 441.801 63.9972Z" fill="#FF8577"/>
</g>
<g filter="url(#filter5_ddd_41_1031)">
<path d="M274.46 88.1198C272.899 88.1743 272.091 87.4208 272.036 85.8592L270.187 32.9227C270.133 31.3612 270.886 30.5532 272.448 30.4986L278.694 30.2805C280.256 30.226 281.064 30.9795 281.118 32.541L281.669 48.3127C281.705 49.3537 281.69 50.3965 281.622 51.4412L281.856 51.433C282.982 49.3352 284.455 47.8766 286.276 47.0574C288.097 46.2121 290.309 45.744 292.911 45.6531C296.971 45.5113 300.373 46.6693 303.117 49.1271C305.86 51.585 307.35 56.1972 307.587 62.964L308.342 84.5914C308.397 86.1529 307.643 86.961 306.081 87.0155L299.835 87.2336C298.274 87.2882 297.466 86.5347 297.411 84.9731L296.754 66.1565C296.556 60.4828 296.041 56.9179 295.208 55.4617C294.375 54.0055 292.671 53.3224 290.094 53.4124C287.362 53.5078 285.343 54.6466 284.038 56.8289C282.732 58.9852 282.196 63.4076 282.43 70.0963L282.967 85.4775C283.021 87.0391 282.268 87.8471 280.706 87.9016L274.46 88.1198Z" fill="#A4D3FF"/>
</g>
<g filter="url(#filter6_ddd_41_1031)">
<path d="M349.833 88.1763C348.271 88.2308 347.468 87.6074 347.422 86.3061L347.319 83.3392C347.272 81.9858 347.756 80.5618 348.772 79.0671L365.422 54.4085L365.416 54.2524C364.379 54.3928 363.34 54.4812 362.299 54.5176L349.611 54.9606C348.05 55.0152 347.246 54.3918 347.201 53.0905L347.157 51.8413C347.05 48.7702 347.777 47.2074 349.338 47.1529L376.353 46.2095C377.915 46.155 378.718 46.7784 378.764 48.0797L378.859 50.8124C378.904 52.0876 378.393 53.5126 377.328 55.0872L360.569 79.9841L360.575 80.1402C361.95 79.988 362.99 79.8995 363.692 79.875L378.449 79.3597C380.011 79.3052 380.814 79.9285 380.859 81.2298L380.996 85.1337C381.041 86.435 380.283 87.1129 378.722 87.1674L349.833 88.1763Z" fill="#EAD99D"/>
</g>
<g filter="url(#filter7_ddd_41_1031)">
<path d="M316.136 55.5925C314.601 55.6462 313.81 55.0223 313.765 53.721L313.629 49.8172C313.583 48.5159 314.328 47.8384 315.864 47.7848L318.518 47.6921L318.471 46.3257C318.43 45.1546 318.666 44.078 319.179 43.0959L322.001 37.7208C322.539 36.7118 323.198 36.1937 323.979 36.1664L326.712 36.071C328.273 36.0164 329.081 36.7699 329.136 38.3315L329.449 47.3104L335.774 47.0895C337.309 47.0359 338.1 47.6598 338.145 48.961L338.281 52.8649C338.327 54.1662 337.582 54.8437 336.046 54.8973L329.722 55.1181L330.398 74.4813C330.491 77.136 330.74 79.0425 331.145 80.2009C331.575 81.3324 332.584 81.8705 334.172 81.815C334.979 81.7869 335.885 81.6249 336.891 81.3292C337.896 81.0075 338.68 80.7065 339.244 80.4262C340.14 79.978 340.749 80.2564 341.071 81.2614L342.398 85.6709C342.663 86.5476 342.347 87.2101 341.451 87.6583C340.605 88.0787 339.434 88.4714 337.935 88.8364C336.463 89.2266 334.973 89.448 333.463 89.5007C329.742 89.6307 326.54 88.9738 323.857 87.53C321.175 86.0863 319.75 82.9701 319.583 78.1813L318.791 55.4998L316.136 55.5925Z" fill="#E095C8"/>
</g>
<path d="M3 55.8499H131.109M3 69.1946H131.109M3 82.5393H131.109" stroke="black" stroke-width="5.33788" stroke-linecap="round"/>
<path d="M542 55.8499H670.109M542 69.1946H670.109M542 82.5393H670.109" stroke="black" stroke-width="5.33788" stroke-linecap="round"/>
<defs>
<filter id="filter0_ddd_41_1031" x="166.371" y="25.2244" width="71.8199" height="69.4619" filterUnits="userSpaceOnUse" color-interpolation-filters="sRGB">
<feFlood flood-opacity="0" result="BackgroundImageFix"/>
<feColorMatrix in="SourceAlpha" type="matrix" values="0 0 0 0 0 0 0 0 0 0 0 0 0 0 0 0 0 0 127 0" result="hardAlpha"/>
<feOffset dx="-5" dy="6"/>
<feComposite in2="hardAlpha" operator="out"/>
<feColorMatrix type="matrix" values="0 0 0 0 0 0 0 0 0 0 0 0 0 0 0 0 0 0 1 0"/>
<feBlend mode="normal" in2="BackgroundImageFix" result="effect1_dropShadow_41_1031"/>
<feColorMatrix in="SourceAlpha" type="matrix" values="0 0 0 0 0 0 0 0 0 0 0 0 0 0 0 0 0 0 127 0" result="hardAlpha"/>
<feOffset dx="6" dy="6"/>
<feComposite in2="hardAlpha" operator="out"/>
<feColorMatrix type="matrix" values="0 0 0 0 0 0 0 0 0 0 0 0 0 0 0 0 0 0 1 0"/>
<feBlend mode="normal" in2="effect1_dropShadow_41_1031" result="effect2_dropShadow_41_1031"/>
<feColorMatrix in="SourceAlpha" type="matrix" values="0 0 0 0 0 0 0 0 0 0 0 0 0 0 0 0 0 0 127 0" result="hardAlpha"/>
<feOffset dx="-7" dy="-2"/>
<feComposite in2="hardAlpha" operator="out"/>
<feColorMatrix type="matrix" values="0 0 0 0 0.358333 0 0 0 0 0.358333 0 0 0 0 0.358333 0 0 0 0.29 0"/>
<feBlend mode="normal" in2="effect2_dropShadow_41_1031" result="effect3_dropShadow_41_1031"/>
<feBlend mode="normal" in="SourceGraphic" in2="effect3_dropShadow_41_1031" result="shape"/>
</filter>
<filter id="filter1_ddd_41_1031" x="216.19" y="42.5923" width="49.8941" height="51.7887" filterUnits="userSpaceOnUse" color-interpolation-filters="sRGB">
<feFlood flood-opacity="0" result="BackgroundImageFix"/>
<feColorMatrix in="SourceAlpha" type="matrix" values="0 0 0 0 0 0 0 0 0 0 0 0 0 0 0 0 0 0 127 0" result="hardAlpha"/>
<feOffset dx="-5" dy="6"/>
<feComposite in2="hardAlpha" operator="out"/>
<feColorMatrix type="matrix" values="0 0 0 0 0 0 0 0 0 0 0 0 0 0 0 0 0 0 1 0"/>
<feBlend mode="normal" in2="BackgroundImageFix" result="effect1_dropShadow_41_1031"/>
<feColorMatrix in="SourceAlpha" type="matrix" values="0 0 0 0 0 0 0 0 0 0 0 0 0 0 0 0 0 0 127 0" result="hardAlpha"/>
<feOffset dx="6" dy="6"/>
<feComposite in2="hardAlpha" operator="out"/>
<feColorMatrix type="matrix" values="0 0 0 0 0 0 0 0 0 0 0 0 0 0 0 0 0 0 1 0"/>
<feBlend mode="normal" in2="effect1_dropShadow_41_1031" result="effect2_dropShadow_41_1031"/>
<feColorMatrix in="SourceAlpha" type="matrix" values="0 0 0 0 0 0 0 0 0 0 0 0 0 0 0 0 0 0 127 0" result="hardAlpha"/>
<feOffset dx="-7" dy="-2"/>
<feComposite in2="hardAlpha" operator="out"/>
<feColorMatrix type="matrix" values="0 0 0 0 0.358333 0 0 0 0 0.358333 0 0 0 0 0.358333 0 0 0 0.29 0"/>
<feBlend mode="normal" in2="effect2_dropShadow_41_1031" result="effect3_dropShadow_41_1031"/>
<feBlend mode="normal" in="SourceGraphic" in2="effect3_dropShadow_41_1031" result="shape"/>
</filter>
<filter id="filter2_ddd_41_1031" x="378.322" y="43.3678" width="53.9931" height="51.9318" filterUnits="userSpaceOnUse" color-interpolation-filters="sRGB">
<feFlood flood-opacity="0" result="BackgroundImageFix"/>
<feColorMatrix in="SourceAlpha" type="matrix" values="0 0 0 0 0 0 0 0 0 0 0 0 0 0 0 0 0 0 127 0" result="hardAlpha"/>
<feOffset dx="-5" dy="6"/>
<feComposite in2="hardAlpha" operator="out"/>
<feColorMatrix type="matrix" values="0 0 0 0 0 0 0 0 0 0 0 0 0 0 0 0 0 0 1 0"/>
<feBlend mode="normal" in2="BackgroundImageFix" result="effect1_dropShadow_41_1031"/>
<feColorMatrix in="SourceAlpha" type="matrix" values="0 0 0 0 0 0 0 0 0 0 0 0 0 0 0 0 0 0 127 0" result="hardAlpha"/>
<feOffset dx="6" dy="6"/>
<feComposite in2="hardAlpha" operator="out"/>
<feColorMatrix type="matrix" values="0 0 0 0 0 0 0 0 0 0 0 0 0 0 0 0 0 0 1 0"/>
<feBlend mode="normal" in2="effect1_dropShadow_41_1031" result="effect2_dropShadow_41_1031"/>
<feColorMatrix in="SourceAlpha" type="matrix" values="0 0 0 0 0 0 0 0 0 0 0 0 0 0 0 0 0 0 127 0" result="hardAlpha"/>
<feOffset dx="-7" dy="-2"/>
<feComposite in2="hardAlpha" operator="out"/>
<feColorMatrix type="matrix" values="0 0 0 0 0.358333 0 0 0 0 0.358333 0 0 0 0 0.358333 0 0 0 0.29 0"/>
<feBlend mode="normal" in2="effect2_dropShadow_41_1031" result="effect3_dropShadow_41_1031"/>
<feBlend mode="normal" in="SourceGraphic" in2="effect3_dropShadow_41_1031" result="shape"/>
</filter>
<filter id="filter3_ddd_41_1031" x="469.374" y="24.6461" width="28.3777" height="70.7405" filterUnits="userSpaceOnUse" color-interpolation-filters="sRGB">
<feFlood flood-opacity="0" result="BackgroundImageFix"/>
<feColorMatrix in="SourceAlpha" type="matrix" values="0 0 0 0 0 0 0 0 0 0 0 0 0 0 0 0 0 0 127 0" result="hardAlpha"/>
<feOffset dx="-5" dy="6"/>
<feComposite in2="hardAlpha" operator="out"/>
<feColorMatrix type="matrix" values="0 0 0 0 0 0 0 0 0 0 0 0 0 0 0 0 0 0 1 0"/>
<feBlend mode="normal" in2="BackgroundImageFix" result="effect1_dropShadow_41_1031"/>
<feColorMatrix in="SourceAlpha" type="matrix" values="0 0 0 0 0 0 0 0 0 0 0 0 0 0 0 0 0 0 127 0" result="hardAlpha"/>
<feOffset dx="6" dy="6"/>
<feComposite in2="hardAlpha" operator="out"/>
<feColorMatrix type="matrix" values="0 0 0 0 0 0 0 0 0 0 0 0 0 0 0 0 0 0 1 0"/>
<feBlend mode="normal" in2="effect1_dropShadow_41_1031" result="effect2_dropShadow_41_1031"/>
<feColorMatrix in="SourceAlpha" type="matrix" values="0 0 0 0 0 0 0 0 0 0 0 0 0 0 0 0 0 0 127 0" result="hardAlpha"/>
<feOffset dx="-7" dy="-2"/>
<feComposite in2="hardAlpha" operator="out"/>
<feColorMatrix type="matrix" values="0 0 0 0 0.358333 0 0 0 0 0.358333 0 0 0 0 0.358333 0 0 0 0.29 0"/>
<feBlend mode="normal" in2="effect2_dropShadow_41_1031" result="effect3_dropShadow_41_1031"/>
<feBlend mode="normal" in="SourceGraphic" in2="effect3_dropShadow_41_1031" result="shape"/>
</filter>
<filter id="filter4_ddd_41_1031" x="422.604" y="43.7673" width="53.9931" height="51.9318" filterUnits="userSpaceOnUse" color-interpolation-filters="sRGB">
<feFlood flood-opacity="0" result="BackgroundImageFix"/>
<feColorMatrix in="SourceAlpha" type="matrix" values="0 0 0 0 0 0 0 0 0 0 0 0 0 0 0 0 0 0 127 0" result="hardAlpha"/>
<feOffset dx="-5" dy="6"/>
<feComposite in2="hardAlpha" operator="out"/>
<feColorMatrix type="matrix" values="0 0 0 0 0 0 0 0 0 0 0 0 0 0 0 0 0 0 1 0"/>
<feBlend mode="normal" in2="BackgroundImageFix" result="effect1_dropShadow_41_1031"/>
<feColorMatrix in="SourceAlpha" type="matrix" values="0 0 0 0 0 0 0 0 0 0 0 0 0 0 0 0 0 0 127 0" result="hardAlpha"/>
<feOffset dx="6" dy="6"/>
<feComposite in2="hardAlpha" operator="out"/>
<feColorMatrix type="matrix" values="0 0 0 0 0 0 0 0 0 0 0 0 0 0 0 0 0 0 1 0"/>
<feBlend mode="normal" in2="effect1_dropShadow_41_1031" result="effect2_dropShadow_41_1031"/>
<feColorMatrix in="SourceAlpha" type="matrix" values="0 0 0 0 0 0 0 0 0 0 0 0 0 0 0 0 0 0 127 0" result="hardAlpha"/>
<feOffset dx="-7" dy="-2"/>
<feComposite in2="hardAlpha" operator="out"/>
<feColorMatrix type="matrix" values="0 0 0 0 0.358333 0 0 0 0 0.358333 0 0 0 0 0.358333 0 0 0 0.29 0"/>
<feBlend mode="normal" in2="effect2_dropShadow_41_1031" result="effect3_dropShadow_41_1031"/>
<feBlend mode="normal" in="SourceGraphic" in2="effect3_dropShadow_41_1031" result="shape"/>
</filter>
<filter id="filter5_ddd_41_1031" x="263.106" y="27.3126" width="51.3182" height="66.8889" filterUnits="userSpaceOnUse" color-interpolation-filters="sRGB">
<feFlood flood-opacity="0" result="BackgroundImageFix"/>
<feColorMatrix in="SourceAlpha" type="matrix" values="0 0 0 0 0 0 0 0 0 0 0 0 0 0 0 0 0 0 127 0" result="hardAlpha"/>
<feOffset dx="-5" dy="6"/>
<feComposite in2="hardAlpha" operator="out"/>
<feColorMatrix type="matrix" values="0 0 0 0 0 0 0 0 0 0 0 0 0 0 0 0 0 0 1 0"/>
<feBlend mode="normal" in2="BackgroundImageFix" result="effect1_dropShadow_41_1031"/>
<feColorMatrix in="SourceAlpha" type="matrix" values="0 0 0 0 0 0 0 0 0 0 0 0 0 0 0 0 0 0 127 0" result="hardAlpha"/>
<feOffset dx="6" dy="6"/>
<feComposite in2="hardAlpha" operator="out"/>
<feColorMatrix type="matrix" values="0 0 0 0 0 0 0 0 0 0 0 0 0 0 0 0 0 0 1 0"/>
<feBlend mode="normal" in2="effect1_dropShadow_41_1031" result="effect2_dropShadow_41_1031"/>
<feColorMatrix in="SourceAlpha" type="matrix" values="0 0 0 0 0 0 0 0 0 0 0 0 0 0 0 0 0 0 127 0" result="hardAlpha"/>
<feOffset dx="-7" dy="-2"/>
<feComposite in2="hardAlpha" operator="out"/>
<feColorMatrix type="matrix" values="0 0 0 0 0.358333 0 0 0 0 0.358333 0 0 0 0 0.358333 0 0 0 0.29 0"/>
<feBlend mode="normal" in2="effect2_dropShadow_41_1031" result="effect3_dropShadow_41_1031"/>
<feBlend mode="normal" in="SourceGraphic" in2="effect3_dropShadow_41_1031" result="shape"/>
</filter>
<filter id="filter6_ddd_41_1031" x="339.059" y="44.095" width="48.0047" height="50.1631" filterUnits="userSpaceOnUse" color-interpolation-filters="sRGB">
<feFlood flood-opacity="0" result="BackgroundImageFix"/>
<feColorMatrix in="SourceAlpha" type="matrix" values="0 0 0 0 0 0 0 0 0 0 0 0 0 0 0 0 0 0 127 0" result="hardAlpha"/>
<feOffset dx="-5" dy="6"/>
<feComposite in2="hardAlpha" operator="out"/>
<feColorMatrix type="matrix" values="0 0 0 0 0 0 0 0 0 0 0 0 0 0 0 0 0 0 1 0"/>
<feBlend mode="normal" in2="BackgroundImageFix" result="effect1_dropShadow_41_1031"/>
<feColorMatrix in="SourceAlpha" type="matrix" values="0 0 0 0 0 0 0 0 0 0 0 0 0 0 0 0 0 0 127 0" result="hardAlpha"/>
<feOffset dx="6" dy="6"/>
<feComposite in2="hardAlpha" operator="out"/>
<feColorMatrix type="matrix" values="0 0 0 0 0 0 0 0 0 0 0 0 0 0 0 0 0 0 1 0"/>
<feBlend mode="normal" in2="effect1_dropShadow_41_1031" result="effect2_dropShadow_41_1031"/>
<feColorMatrix in="SourceAlpha" type="matrix" values="0 0 0 0 0 0 0 0 0 0 0 0 0 0 0 0 0 0 127 0" result="hardAlpha"/>
<feOffset dx="-7" dy="-2"/>
<feComposite in2="hardAlpha" operator="out"/>
<feColorMatrix type="matrix" values="0 0 0 0 0.358333 0 0 0 0 0.358333 0 0 0 0 0.358333 0 0 0 0.29 0"/>
<feBlend mode="normal" in2="effect2_dropShadow_41_1031" result="effect3_dropShadow_41_1031"/>
<feBlend mode="normal" in="SourceGraphic" in2="effect3_dropShadow_41_1031" result="shape"/>
</filter>
<filter id="filter7_ddd_41_1031" x="306.165" y="33.572" width="42.7064" height="62.5721" filterUnits="userSpaceOnUse" color-interpolation-filters="sRGB">
<feFlood flood-opacity="0" result="BackgroundImageFix"/>
<feColorMatrix in="SourceAlpha" type="matrix" values="0 0 0 0 0 0 0 0 0 0 0 0 0 0 0 0 0 0 127 0" result="hardAlpha"/>
<feOffset dx="-5" dy="6"/>
<feComposite in2="hardAlpha" operator="out"/>
<feColorMatrix type="matrix" values="0 0 0 0 0 0 0 0 0 0 0 0 0 0 0 0 0 0 1 0"/>
<feBlend mode="normal" in2="BackgroundImageFix" result="effect1_dropShadow_41_1031"/>
<feColorMatrix in="SourceAlpha" type="matrix" values="0 0 0 0 0 0 0 0 0 0 0 0 0 0 0 0 0 0 127 0" result="hardAlpha"/>
<feOffset dx="6" dy="6"/>
<feComposite in2="hardAlpha" operator="out"/>
<feColorMatrix type="matrix" values="0 0 0 0 0 0 0 0 0 0 0 0 0 0 0 0 0 0 1 0"/>
<feBlend mode="normal" in2="effect1_dropShadow_41_1031" result="effect2_dropShadow_41_1031"/>
<feColorMatrix in="SourceAlpha" type="matrix" values="0 0 0 0 0 0 0 0 0 0 0 0 0 0 0 0 0 0 127 0" result="hardAlpha"/>
<feOffset dx="-7" dy="-2"/>
<feComposite in2="hardAlpha" operator="out"/>
<feColorMatrix type="matrix" values="0 0 0 0 0.358333 0 0 0 0 0.358333 0 0 0 0 0.358333 0 0 0 0.29 0"/>
<feBlend mode="normal" in2="effect2_dropShadow_41_1031" result="effect3_dropShadow_41_1031"/>
<feBlend mode="normal" in="SourceGraphic" in2="effect3_dropShadow_41_1031" result="shape"/>
</filter>
</defs>
</svg>
