<svg width="779" height="466" viewBox="0 0 779 466" fill="none" xmlns="http://www.w3.org/2000/svg">
<g filter="url(#filter0_ddd_184_1250)">
<path d="M52.9298 181.231C50.2588 177.015 51.3929 174.79 56.332 174.555L69.5617 173.925C72.1824 173.801 74.5411 175.431 76.6378 178.815L93.3912 206.12C93.8624 206.855 95.2529 209.163 97.5629 213.042C99.8717 216.871 101.246 220.644 101.685 224.36L101.988 224.345C102.254 220.596 103.45 216.701 105.576 212.661C107.701 208.571 108.982 206.136 109.418 205.358L124.869 176.521C126.805 172.945 129.083 171.094 131.703 170.969L144.933 170.34C149.872 170.105 151.107 172.218 148.637 176.678L113.265 240.7L114.09 276.262C114.154 279.036 112.422 280.507 108.894 280.675L97.4036 281.222C93.8757 281.39 92.0795 280.086 92.0152 277.312L91.1904 241.75L52.9298 181.231Z" fill="#C7B9FF"/>
</g>
<g filter="url(#filter1_ddd_184_1250)">
<path d="M154.214 260.69C153.995 251.252 158.339 244.196 167.246 239.521C176.152 234.845 186.378 232.091 197.922 231.259L197.857 228.427C197.756 224.086 196.601 221.071 194.39 219.381C192.18 217.691 189.142 216.938 185.276 217.122C182.541 217.252 180.122 217.768 178.019 218.671C175.962 219.525 174.168 220.508 172.636 221.62C171.15 222.683 169.807 223.762 168.605 224.859C166.48 226.849 164.69 227.029 163.237 225.398L157.199 218.457C155.696 216.733 156.007 214.876 158.132 212.886C159.748 211.344 161.628 209.979 163.772 208.791C165.963 207.6 168.862 206.447 172.471 205.33C176.078 204.167 180.781 203.447 186.58 203.171C196.387 202.704 203.959 204.612 209.298 208.893C214.683 213.172 217.479 219.723 217.683 228.547L218.719 273.211C218.785 276.042 217.403 277.525 214.574 277.659L202.976 278.211C200.43 278.332 199.124 276.977 199.059 274.146L199.009 272.022L198.868 272.029C196.149 274.851 192.847 276.992 188.964 278.452C185.126 279.863 181.581 280.646 178.327 280.801C170.595 281.169 164.682 279.56 160.587 275.976C156.49 272.344 154.366 267.249 154.214 260.69ZM175.138 259.269C175.176 260.921 175.539 262.344 176.228 263.54C176.915 264.688 177.973 265.512 179.4 266.011C180.828 266.51 182.414 266.718 184.158 266.635C186.563 266.52 188.889 266.079 191.137 265.311C193.385 264.543 195.871 262.865 198.596 260.279L198.239 244.92C190.339 246.193 185.062 247.601 182.408 249.145C179.753 250.688 177.854 252.243 176.71 253.809C175.614 255.373 175.09 257.193 175.138 259.269Z" fill="#FF8577"/>
</g>
<g filter="url(#filter2_ddd_184_1250)">
<path d="M501.34 242.021C501.063 230.082 503.815 220.527 509.596 213.355C515.423 206.181 523.783 202.335 534.674 201.817C547.309 201.216 556.767 204.025 563.047 210.246C569.328 216.466 572.635 226.796 572.97 241.235C573.036 244.067 571.748 245.545 569.108 245.671L522.432 247.891C523.368 255.688 525.416 260.527 528.575 262.408C531.733 264.289 535.364 265.132 539.465 264.937C543.379 264.751 546.361 264.09 548.411 262.953C550.461 261.816 552.173 260.317 553.546 258.457C555.101 256.305 557.073 255.88 559.463 257.183L566.636 261.165C569.457 262.731 569.904 264.741 567.979 267.195C565.183 270.776 561.872 273.508 558.045 275.391C554.218 277.274 548.132 278.414 539.787 278.811C526.256 279.454 516.535 276.468 510.623 269.852C504.711 263.237 501.617 253.959 501.34 242.021ZM522.175 233.731L552.938 232.268C552.82 227.171 551.451 223.08 548.83 219.992C546.209 216.857 542.117 215.422 536.553 215.687C532.121 215.897 528.645 217.622 526.124 220.859C523.602 224.05 522.286 228.341 522.175 233.731Z" fill="#C7B9FF"/>
</g>
<g filter="url(#filter3_ddd_184_1250)">
<path d="M691.641 168.516C691.441 164.494 693.272 162.391 697.135 162.207L710.011 161.595C713.873 161.411 715.798 163.336 715.784 167.368L715.244 237.867C715.218 241.363 713.514 243.191 710.134 243.352L700.799 243.796C697.419 243.956 695.635 242.294 695.447 238.809L691.641 168.516ZM700.135 277.693C696.38 277.872 694.455 275.948 694.362 271.92L694.112 261.127C694.018 257.1 695.849 254.997 699.605 254.819L711.837 254.237C715.593 254.058 717.517 255.982 717.61 260.01L717.861 270.803C717.954 274.83 716.123 276.933 712.368 277.111L700.135 277.693Z" fill="#699BF7"/>
</g>
<g filter="url(#filter4_ddd_184_1250)">
<path d="M596.165 242.006C595.888 230.067 598.64 220.512 604.421 213.34C610.249 206.166 618.608 202.32 629.499 201.802C642.135 201.2 651.592 204.01 657.873 210.23C664.153 216.451 667.46 226.781 667.795 241.22C667.861 244.052 666.574 245.53 663.933 245.656L617.258 247.876C618.194 255.673 620.241 260.512 623.4 262.393C626.559 264.274 630.189 265.117 634.291 264.922C638.204 264.736 641.186 264.075 643.236 262.938C645.287 261.801 646.998 260.302 648.371 258.442C649.926 256.289 651.898 255.865 654.289 257.168L661.461 261.15C664.282 262.716 664.73 264.726 662.804 267.18C660.008 270.761 656.697 273.493 652.87 275.376C649.043 277.259 642.958 278.399 634.612 278.796C621.081 279.439 611.36 276.453 605.448 269.837C599.536 263.222 596.442 253.944 596.165 242.006ZM617 233.716L647.764 232.253C647.645 227.156 646.276 223.065 643.656 219.977C641.034 216.842 636.942 215.407 631.378 215.672C626.947 215.882 623.47 217.607 620.949 220.844C618.427 224.035 617.111 228.326 617 233.716Z" fill="#FF8577"/>
</g>
<g filter="url(#filter5_ddd_184_1250)">
<path d="M260.332 280.702C257.503 280.837 256.056 279.488 255.99 276.657L253.764 180.677C253.698 177.846 255.08 176.363 257.909 176.228L269.224 175.69C272.053 175.555 273.5 176.904 273.566 179.735L274.229 208.331C274.273 210.218 274.222 212.11 274.077 214.007L274.502 213.987C276.584 210.156 279.283 207.476 282.599 205.949C285.913 204.374 289.928 203.474 294.643 203.25C301.998 202.9 308.133 204.923 313.05 209.319C317.966 213.714 320.566 222.046 320.851 234.315L321.76 273.528C321.826 276.36 320.445 277.843 317.616 277.977L306.3 278.515C303.472 278.65 302.024 277.302 301.959 274.47L301.167 240.354C300.929 230.067 300.071 223.612 298.594 220.989C297.117 218.367 294.045 217.167 289.378 217.389C284.427 217.624 280.747 219.736 278.338 223.725C275.928 227.666 274.864 235.7 275.145 247.827L275.792 275.715C275.858 278.546 274.476 280.029 271.647 280.164L260.332 280.702Z" fill="#A4D3FF"/>
</g>
<g filter="url(#filter6_ddd_184_1250)">
<path d="M421.311 279.256C418.482 279.391 417.04 278.279 416.986 275.919L416.861 270.54C416.804 268.086 417.711 265.492 419.583 262.757L450.255 217.649L450.248 217.366C448.367 217.644 446.483 217.828 444.597 217.918L421.613 219.011C418.784 219.146 417.342 218.033 417.288 215.674L417.235 213.409C417.106 207.841 418.456 204.989 421.285 204.855L470.223 202.527C473.052 202.392 474.494 203.505 474.549 205.864L474.664 210.819C474.717 213.131 473.763 215.727 471.8 218.608L440.926 264.151L440.933 264.435C443.427 264.127 445.311 263.943 446.584 263.882L473.316 262.611C476.145 262.476 477.587 263.588 477.641 265.948L477.806 273.026C477.86 275.385 476.473 276.632 473.644 276.767L421.311 279.256Z" fill="#EAD99D"/>
</g>
<g filter="url(#filter7_ddd_184_1250)">
<path d="M349.29 221.21C346.508 221.343 345.09 220.229 345.035 217.87L344.871 210.792C344.816 208.432 346.18 207.186 348.962 207.054L353.771 206.825L353.713 204.348C353.664 202.225 354.114 200.266 355.064 198.473L360.288 188.659C361.283 186.816 362.488 185.861 363.903 185.794L368.853 185.559C371.682 185.424 373.129 186.772 373.195 189.604L373.572 205.883L385.029 205.338C387.811 205.206 389.229 206.32 389.284 208.679L389.448 215.757C389.503 218.117 388.139 219.362 385.358 219.495L373.901 220.04L374.715 255.148C374.827 259.961 375.237 263.413 375.947 265.505C376.702 267.548 378.518 268.501 381.394 268.364C382.855 268.295 384.5 267.98 386.328 267.421C388.154 266.814 389.581 266.25 390.607 265.729C392.24 264.896 393.337 265.387 393.898 267.202L396.207 275.171C396.668 276.755 396.083 277.964 394.45 278.797C392.911 279.579 390.78 280.318 388.059 281.014C385.386 281.756 382.682 282.191 379.947 282.321C373.205 282.642 367.421 281.524 362.595 278.966C357.768 276.409 355.254 270.788 355.053 262.106L354.099 220.982L349.29 221.21Z" fill="#E095C8"/>
</g>
<defs>
<filter id="filter0_ddd_184_1250" x="41.9233" y="167.988" width="118.935" height="121.421" filterUnits="userSpaceOnUse" color-interpolation-filters="sRGB">
<feFlood flood-opacity="0" result="BackgroundImageFix"/>
<feColorMatrix in="SourceAlpha" type="matrix" values="0 0 0 0 0 0 0 0 0 0 0 0 0 0 0 0 0 0 127 0" result="hardAlpha"/>
<feOffset dx="-5" dy="6"/>
<feComposite in2="hardAlpha" operator="out"/>
<feColorMatrix type="matrix" values="0 0 0 0 0 0 0 0 0 0 0 0 0 0 0 0 0 0 1 0"/>
<feBlend mode="normal" in2="BackgroundImageFix" result="effect1_dropShadow_184_1250"/>
<feColorMatrix in="SourceAlpha" type="matrix" values="0 0 0 0 0 0 0 0 0 0 0 0 0 0 0 0 0 0 127 0" result="hardAlpha"/>
<feOffset dx="6" dy="6"/>
<feComposite in2="hardAlpha" operator="out"/>
<feColorMatrix type="matrix" values="0 0 0 0 0 0 0 0 0 0 0 0 0 0 0 0 0 0 1 0"/>
<feBlend mode="normal" in2="effect1_dropShadow_184_1250" result="effect2_dropShadow_184_1250"/>
<feColorMatrix in="SourceAlpha" type="matrix" values="0 0 0 0 0 0 0 0 0 0 0 0 0 0 0 0 0 0 127 0" result="hardAlpha"/>
<feOffset dx="-7" dy="-2"/>
<feComposite in2="hardAlpha" operator="out"/>
<feColorMatrix type="matrix" values="0 0 0 0 0.358333 0 0 0 0 0.358333 0 0 0 0 0.358333 0 0 0 0.29 0"/>
<feBlend mode="normal" in2="effect2_dropShadow_184_1250" result="effect3_dropShadow_184_1250"/>
<feBlend mode="normal" in="SourceGraphic" in2="effect3_dropShadow_184_1250" result="shape"/>
</filter>
<filter id="filter1_ddd_184_1250" x="145.917" y="199.721" width="78.9331" height="88.2034" filterUnits="userSpaceOnUse" color-interpolation-filters="sRGB">
<feFlood flood-opacity="0" result="BackgroundImageFix"/>
<feColorMatrix in="SourceAlpha" type="matrix" values="0 0 0 0 0 0 0 0 0 0 0 0 0 0 0 0 0 0 127 0" result="hardAlpha"/>
<feOffset dx="-5" dy="6"/>
<feComposite in2="hardAlpha" operator="out"/>
<feColorMatrix type="matrix" values="0 0 0 0 0 0 0 0 0 0 0 0 0 0 0 0 0 0 1 0"/>
<feBlend mode="normal" in2="BackgroundImageFix" result="effect1_dropShadow_184_1250"/>
<feColorMatrix in="SourceAlpha" type="matrix" values="0 0 0 0 0 0 0 0 0 0 0 0 0 0 0 0 0 0 127 0" result="hardAlpha"/>
<feOffset dx="6" dy="6"/>
<feComposite in2="hardAlpha" operator="out"/>
<feColorMatrix type="matrix" values="0 0 0 0 0 0 0 0 0 0 0 0 0 0 0 0 0 0 1 0"/>
<feBlend mode="normal" in2="effect1_dropShadow_184_1250" result="effect2_dropShadow_184_1250"/>
<feColorMatrix in="SourceAlpha" type="matrix" values="0 0 0 0 0 0 0 0 0 0 0 0 0 0 0 0 0 0 127 0" result="hardAlpha"/>
<feOffset dx="-7" dy="-2"/>
<feComposite in2="hardAlpha" operator="out"/>
<feColorMatrix type="matrix" values="0 0 0 0 0.358333 0 0 0 0 0.358333 0 0 0 0 0.358333 0 0 0 0.29 0"/>
<feBlend mode="normal" in2="effect2_dropShadow_184_1250" result="effect3_dropShadow_184_1250"/>
<feBlend mode="normal" in="SourceGraphic" in2="effect3_dropShadow_184_1250" result="shape"/>
</filter>
<filter id="filter2_ddd_184_1250" x="493.445" y="198.04" width="86.3594" height="88.5566" filterUnits="userSpaceOnUse" color-interpolation-filters="sRGB">
<feFlood flood-opacity="0" result="BackgroundImageFix"/>
<feColorMatrix in="SourceAlpha" type="matrix" values="0 0 0 0 0 0 0 0 0 0 0 0 0 0 0 0 0 0 127 0" result="hardAlpha"/>
<feOffset dx="-5" dy="6"/>
<feComposite in2="hardAlpha" operator="out"/>
<feColorMatrix type="matrix" values="0 0 0 0 0 0 0 0 0 0 0 0 0 0 0 0 0 0 1 0"/>
<feBlend mode="normal" in2="BackgroundImageFix" result="effect1_dropShadow_184_1250"/>
<feColorMatrix in="SourceAlpha" type="matrix" values="0 0 0 0 0 0 0 0 0 0 0 0 0 0 0 0 0 0 127 0" result="hardAlpha"/>
<feOffset dx="6" dy="6"/>
<feComposite in2="hardAlpha" operator="out"/>
<feColorMatrix type="matrix" values="0 0 0 0 0 0 0 0 0 0 0 0 0 0 0 0 0 0 1 0"/>
<feBlend mode="normal" in2="effect1_dropShadow_184_1250" result="effect2_dropShadow_184_1250"/>
<feColorMatrix in="SourceAlpha" type="matrix" values="0 0 0 0 0 0 0 0 0 0 0 0 0 0 0 0 0 0 127 0" result="hardAlpha"/>
<feOffset dx="-7" dy="-2"/>
<feComposite in2="hardAlpha" operator="out"/>
<feColorMatrix type="matrix" values="0 0 0 0 0.358333 0 0 0 0 0.358333 0 0 0 0 0.358333 0 0 0 0.29 0"/>
<feBlend mode="normal" in2="effect2_dropShadow_184_1250" result="effect3_dropShadow_184_1250"/>
<feBlend mode="normal" in="SourceGraphic" in2="effect3_dropShadow_184_1250" result="shape"/>
</filter>
<filter id="filter3_ddd_184_1250" x="684.34" y="159.319" width="40.1436" height="124.665" filterUnits="userSpaceOnUse" color-interpolation-filters="sRGB">
<feFlood flood-opacity="0" result="BackgroundImageFix"/>
<feColorMatrix in="SourceAlpha" type="matrix" values="0 0 0 0 0 0 0 0 0 0 0 0 0 0 0 0 0 0 127 0" result="hardAlpha"/>
<feOffset dx="-5" dy="6"/>
<feComposite in2="hardAlpha" operator="out"/>
<feColorMatrix type="matrix" values="0 0 0 0 0 0 0 0 0 0 0 0 0 0 0 0 0 0 1 0"/>
<feBlend mode="normal" in2="BackgroundImageFix" result="effect1_dropShadow_184_1250"/>
<feColorMatrix in="SourceAlpha" type="matrix" values="0 0 0 0 0 0 0 0 0 0 0 0 0 0 0 0 0 0 127 0" result="hardAlpha"/>
<feOffset dx="6" dy="6"/>
<feComposite in2="hardAlpha" operator="out"/>
<feColorMatrix type="matrix" values="0 0 0 0 0 0 0 0 0 0 0 0 0 0 0 0 0 0 1 0"/>
<feBlend mode="normal" in2="effect1_dropShadow_184_1250" result="effect2_dropShadow_184_1250"/>
<feColorMatrix in="SourceAlpha" type="matrix" values="0 0 0 0 0 0 0 0 0 0 0 0 0 0 0 0 0 0 127 0" result="hardAlpha"/>
<feOffset dx="-7" dy="-2"/>
<feComposite in2="hardAlpha" operator="out"/>
<feColorMatrix type="matrix" values="0 0 0 0 0.358333 0 0 0 0 0.358333 0 0 0 0 0.358333 0 0 0 0.29 0"/>
<feBlend mode="normal" in2="effect2_dropShadow_184_1250" result="effect3_dropShadow_184_1250"/>
<feBlend mode="normal" in="SourceGraphic" in2="effect3_dropShadow_184_1250" result="shape"/>
</filter>
<filter id="filter4_ddd_184_1250" x="588.27" y="198.025" width="86.3594" height="88.5566" filterUnits="userSpaceOnUse" color-interpolation-filters="sRGB">
<feFlood flood-opacity="0" result="BackgroundImageFix"/>
<feColorMatrix in="SourceAlpha" type="matrix" values="0 0 0 0 0 0 0 0 0 0 0 0 0 0 0 0 0 0 127 0" result="hardAlpha"/>
<feOffset dx="-5" dy="6"/>
<feComposite in2="hardAlpha" operator="out"/>
<feColorMatrix type="matrix" values="0 0 0 0 0 0 0 0 0 0 0 0 0 0 0 0 0 0 1 0"/>
<feBlend mode="normal" in2="BackgroundImageFix" result="effect1_dropShadow_184_1250"/>
<feColorMatrix in="SourceAlpha" type="matrix" values="0 0 0 0 0 0 0 0 0 0 0 0 0 0 0 0 0 0 127 0" result="hardAlpha"/>
<feOffset dx="6" dy="6"/>
<feComposite in2="hardAlpha" operator="out"/>
<feColorMatrix type="matrix" values="0 0 0 0 0 0 0 0 0 0 0 0 0 0 0 0 0 0 1 0"/>
<feBlend mode="normal" in2="effect1_dropShadow_184_1250" result="effect2_dropShadow_184_1250"/>
<feColorMatrix in="SourceAlpha" type="matrix" values="0 0 0 0 0 0 0 0 0 0 0 0 0 0 0 0 0 0 127 0" result="hardAlpha"/>
<feOffset dx="-7" dy="-2"/>
<feComposite in2="hardAlpha" operator="out"/>
<feColorMatrix type="matrix" values="0 0 0 0 0.358333 0 0 0 0 0.358333 0 0 0 0 0.358333 0 0 0 0.29 0"/>
<feBlend mode="normal" in2="effect2_dropShadow_184_1250" result="effect3_dropShadow_184_1250"/>
<feBlend mode="normal" in="SourceGraphic" in2="effect3_dropShadow_184_1250" result="shape"/>
</filter>
<filter id="filter5_ddd_184_1250" x="246.666" y="171.301" width="81.1934" height="115.603" filterUnits="userSpaceOnUse" color-interpolation-filters="sRGB">
<feFlood flood-opacity="0" result="BackgroundImageFix"/>
<feColorMatrix in="SourceAlpha" type="matrix" values="0 0 0 0 0 0 0 0 0 0 0 0 0 0 0 0 0 0 127 0" result="hardAlpha"/>
<feOffset dx="-5" dy="6"/>
<feComposite in2="hardAlpha" operator="out"/>
<feColorMatrix type="matrix" values="0 0 0 0 0 0 0 0 0 0 0 0 0 0 0 0 0 0 1 0"/>
<feBlend mode="normal" in2="BackgroundImageFix" result="effect1_dropShadow_184_1250"/>
<feColorMatrix in="SourceAlpha" type="matrix" values="0 0 0 0 0 0 0 0 0 0 0 0 0 0 0 0 0 0 127 0" result="hardAlpha"/>
<feOffset dx="6" dy="6"/>
<feComposite in2="hardAlpha" operator="out"/>
<feColorMatrix type="matrix" values="0 0 0 0 0 0 0 0 0 0 0 0 0 0 0 0 0 0 1 0"/>
<feBlend mode="normal" in2="effect1_dropShadow_184_1250" result="effect2_dropShadow_184_1250"/>
<feColorMatrix in="SourceAlpha" type="matrix" values="0 0 0 0 0 0 0 0 0 0 0 0 0 0 0 0 0 0 127 0" result="hardAlpha"/>
<feOffset dx="-7" dy="-2"/>
<feComposite in2="hardAlpha" operator="out"/>
<feColorMatrix type="matrix" values="0 0 0 0 0.358333 0 0 0 0 0.358333 0 0 0 0 0.358333 0 0 0 0.29 0"/>
<feBlend mode="normal" in2="effect2_dropShadow_184_1250" result="effect3_dropShadow_184_1250"/>
<feBlend mode="normal" in="SourceGraphic" in2="effect3_dropShadow_184_1250" result="shape"/>
</filter>
<filter id="filter6_ddd_184_1250" x="408.344" y="200.244" width="75.5435" height="85.2141" filterUnits="userSpaceOnUse" color-interpolation-filters="sRGB">
<feFlood flood-opacity="0" result="BackgroundImageFix"/>
<feColorMatrix in="SourceAlpha" type="matrix" values="0 0 0 0 0 0 0 0 0 0 0 0 0 0 0 0 0 0 127 0" result="hardAlpha"/>
<feOffset dx="-5" dy="6"/>
<feComposite in2="hardAlpha" operator="out"/>
<feColorMatrix type="matrix" values="0 0 0 0 0 0 0 0 0 0 0 0 0 0 0 0 0 0 1 0"/>
<feBlend mode="normal" in2="BackgroundImageFix" result="effect1_dropShadow_184_1250"/>
<feColorMatrix in="SourceAlpha" type="matrix" values="0 0 0 0 0 0 0 0 0 0 0 0 0 0 0 0 0 0 127 0" result="hardAlpha"/>
<feOffset dx="6" dy="6"/>
<feComposite in2="hardAlpha" operator="out"/>
<feColorMatrix type="matrix" values="0 0 0 0 0 0 0 0 0 0 0 0 0 0 0 0 0 0 1 0"/>
<feBlend mode="normal" in2="effect1_dropShadow_184_1250" result="effect2_dropShadow_184_1250"/>
<feColorMatrix in="SourceAlpha" type="matrix" values="0 0 0 0 0 0 0 0 0 0 0 0 0 0 0 0 0 0 127 0" result="hardAlpha"/>
<feOffset dx="-7" dy="-2"/>
<feComposite in2="hardAlpha" operator="out"/>
<feColorMatrix type="matrix" values="0 0 0 0 0.358333 0 0 0 0 0.358333 0 0 0 0 0.358333 0 0 0 0.29 0"/>
<feBlend mode="normal" in2="effect2_dropShadow_184_1250" result="effect3_dropShadow_184_1250"/>
<feBlend mode="normal" in="SourceGraphic" in2="effect3_dropShadow_184_1250" result="shape"/>
</filter>
<filter id="filter7_ddd_184_1250" x="337.313" y="182.327" width="65.6782" height="107.582" filterUnits="userSpaceOnUse" color-interpolation-filters="sRGB">
<feFlood flood-opacity="0" result="BackgroundImageFix"/>
<feColorMatrix in="SourceAlpha" type="matrix" values="0 0 0 0 0 0 0 0 0 0 0 0 0 0 0 0 0 0 127 0" result="hardAlpha"/>
<feOffset dx="-5" dy="6"/>
<feComposite in2="hardAlpha" operator="out"/>
<feColorMatrix type="matrix" values="0 0 0 0 0 0 0 0 0 0 0 0 0 0 0 0 0 0 1 0"/>
<feBlend mode="normal" in2="BackgroundImageFix" result="effect1_dropShadow_184_1250"/>
<feColorMatrix in="SourceAlpha" type="matrix" values="0 0 0 0 0 0 0 0 0 0 0 0 0 0 0 0 0 0 127 0" result="hardAlpha"/>
<feOffset dx="6" dy="6"/>
<feComposite in2="hardAlpha" operator="out"/>
<feColorMatrix type="matrix" values="0 0 0 0 0 0 0 0 0 0 0 0 0 0 0 0 0 0 1 0"/>
<feBlend mode="normal" in2="effect1_dropShadow_184_1250" result="effect2_dropShadow_184_1250"/>
<feColorMatrix in="SourceAlpha" type="matrix" values="0 0 0 0 0 0 0 0 0 0 0 0 0 0 0 0 0 0 127 0" result="hardAlpha"/>
<feOffset dx="-7" dy="-2"/>
<feComposite in2="hardAlpha" operator="out"/>
<feColorMatrix type="matrix" values="0 0 0 0 0.358333 0 0 0 0 0.358333 0 0 0 0 0.358333 0 0 0 0.29 0"/>
<feBlend mode="normal" in2="effect2_dropShadow_184_1250" result="effect3_dropShadow_184_1250"/>
<feBlend mode="normal" in="SourceGraphic" in2="effect3_dropShadow_184_1250" result="shape"/>
</filter>
</defs>
</svg>
