<svg width="673" height="181" viewBox="0 0 673 181" fill="none" xmlns="http://www.w3.org/2000/svg">
<g filter="url(#filter0_ddd_37_785)">
<path d="M175.611 47.6992C174.118 45.3703 174.726 44.1586 177.436 44.064L184.695 43.8105C186.133 43.7603 187.438 44.6699 188.611 46.5392L197.983 61.6193C198.246 62.0254 199.024 63.2995 200.317 65.4415C201.609 67.5559 202.388 69.6329 202.653 71.6724L202.819 71.6666C202.941 69.6136 203.573 67.4874 204.714 65.288C205.855 63.061 206.542 61.7357 206.776 61.3122L215.074 45.6151C216.113 43.6685 217.352 42.6701 218.79 42.6198L226.049 42.3664C228.759 42.2717 229.45 43.4381 228.123 45.8654L209.115 80.7078L209.796 100.203C209.849 101.724 208.907 102.518 206.972 102.585L200.667 102.806C198.731 102.873 197.737 102.147 197.684 100.626L197.003 81.1307L175.611 47.6992Z" fill="#C7B9FF"/>
</g>
<g filter="url(#filter1_ddd_37_785)">
<path d="M224.267 91.6695C224.086 86.4643 226.439 82.6038 231.328 80.0879C236.218 77.572 241.848 76.1246 248.218 75.7458L248.164 74.1842C248.08 71.7899 247.423 70.1191 246.191 69.1719C244.959 68.2248 243.276 67.7884 241.142 67.863C239.633 67.9157 238.3 68.1837 237.144 68.667C236.014 69.1234 235.029 69.6529 234.19 70.2555C233.376 70.8311 232.641 71.417 231.984 72.0132C230.824 73.096 229.836 73.1826 229.023 72.273L225.644 68.4042C224.802 67.4434 224.962 66.4215 226.123 65.3387C227.006 64.5001 228.035 63.7606 229.211 63.1202C230.414 62.4789 232.008 61.863 233.994 61.2725C235.979 60.656 238.572 60.2918 241.773 60.18C247.186 59.991 251.381 61.0952 254.357 63.4928C257.359 65.8895 258.945 69.5213 259.115 74.3881L259.975 99.0215C260.03 100.583 259.276 101.391 257.715 101.446L251.312 101.669C249.907 101.718 249.177 100.962 249.123 99.4005L249.082 98.2294L249.004 98.2321C247.52 99.7692 245.71 100.927 243.575 101.705C241.464 102.456 239.511 102.863 237.715 102.926C233.447 103.075 230.17 102.147 227.886 100.142C225.6 98.1113 224.394 95.2871 224.267 91.6695ZM235.815 91.0317C235.846 91.9426 236.056 92.7301 236.444 93.394C236.831 94.0319 237.421 94.4934 238.212 94.7785C239.004 95.0635 239.881 95.1892 240.844 95.1556C242.172 95.1092 243.454 94.8821 244.69 94.4741C245.927 94.0661 247.289 93.1586 248.777 91.7517L248.481 83.2803C244.126 83.9274 241.221 84.6673 239.765 85.4999C238.308 86.3325 237.269 87.1765 236.648 88.0321C236.052 88.8867 235.775 89.8866 235.815 91.0317Z" fill="#FF8577"/>
</g>
<g filter="url(#filter2_ddd_37_785)">
<path d="M386.065 83.0235C385.835 76.439 387.294 71.1896 390.44 67.2753C393.613 63.3601 398.205 61.2975 404.217 61.0876C411.192 60.844 416.434 62.4589 419.943 65.9324C423.451 69.4058 425.345 75.1244 425.623 83.0883C425.677 84.6499 424.976 85.4561 423.519 85.507L397.753 86.4067C398.32 90.7125 399.482 93.3949 401.239 94.454C402.996 95.5132 405.006 96.0032 407.271 95.9241C409.431 95.8487 411.073 95.5047 412.199 94.8921C413.324 94.2796 414.259 93.4652 415.006 92.4489C415.85 91.2729 416.937 91.0525 418.266 91.7879L422.253 94.0329C423.821 94.9162 424.081 96.0276 423.034 97.3671C421.512 99.3224 419.701 100.806 417.6 101.817C415.498 102.829 412.144 103.415 407.538 103.576C400.068 103.837 394.68 102.123 391.372 98.4336C388.064 94.7447 386.295 89.608 386.065 83.0235ZM397.519 78.5976L414.501 78.0046C414.403 75.1938 413.62 72.9281 412.153 71.2074C410.685 69.4607 408.415 68.641 405.344 68.7482C402.898 68.8337 400.989 69.7602 399.618 71.5279C398.245 73.2696 397.546 75.6261 397.519 78.5976Z" fill="#C7B9FF"/>
</g>
<g filter="url(#filter3_ddd_37_785)">
<path d="M476.575 45.3616C476.441 43.1921 477.417 42.0709 479.501 41.9981L486.45 41.7555C488.535 41.6827 489.586 42.7331 489.604 44.9066L489.757 82.9059C489.765 84.7899 488.857 85.7637 487.033 85.8274L481.995 86.0034C480.171 86.0671 479.197 85.1589 479.073 83.279L476.575 45.3616ZM481.85 104.271C479.823 104.342 478.772 103.292 478.696 101.12L478.493 95.3007C478.417 93.1291 479.392 92.008 481.419 91.9372L488.021 91.7067C490.047 91.6359 491.099 92.6863 491.175 94.8578L491.378 100.678C491.454 102.849 490.478 103.97 488.451 104.041L481.85 104.271Z" fill="#699BF7"/>
</g>
<g filter="url(#filter4_ddd_37_785)">
<path d="M430.347 83.423C430.117 76.8385 431.575 71.5891 434.722 67.6748C437.894 63.7596 442.487 61.6971 448.499 61.4871C455.473 61.2436 460.715 62.8585 464.224 66.3319C467.733 69.8053 469.626 75.524 469.904 83.4879C469.959 85.0494 469.257 85.8556 467.8 85.9065L442.034 86.8063C442.602 91.112 443.764 93.7945 445.521 94.8536C447.277 95.9127 449.288 96.4027 451.552 96.3237C453.712 96.2482 455.355 95.9042 456.48 95.2917C457.605 94.6791 458.541 93.8647 459.287 92.8485C460.132 91.6724 461.219 91.4521 462.547 92.1874L466.534 94.4325C468.103 95.3158 468.363 96.4271 467.315 97.7666C465.794 99.7219 463.983 101.205 461.881 102.217C459.78 103.228 456.426 103.814 451.819 103.975C444.35 104.236 438.961 102.522 435.653 98.8332C432.346 95.1443 430.577 90.0076 430.347 83.423ZM441.801 78.9972L458.783 78.4042C458.685 75.5934 457.902 73.3276 456.435 71.607C454.967 69.8603 452.697 69.0405 449.626 69.1478C447.18 69.2332 445.271 70.1598 443.899 71.9274C442.527 73.6691 441.827 76.0257 441.801 78.9972Z" fill="#FF8577"/>
</g>
<g filter="url(#filter5_ddd_37_785)">
<path d="M274.46 103.12C272.899 103.174 272.091 102.421 272.036 100.859L270.188 47.9227C270.133 46.3612 270.887 45.5532 272.448 45.4986L278.694 45.2805C280.256 45.226 281.064 45.9795 281.118 47.541L281.669 63.3127C281.705 64.3537 281.69 65.3965 281.622 66.4412L281.856 66.433C282.982 64.3352 284.455 62.8766 286.277 62.0574C288.097 61.2121 290.309 60.744 292.911 60.6531C296.971 60.5113 300.373 61.6693 303.117 64.1271C305.861 66.585 307.351 71.1972 307.587 77.964L308.342 99.5914C308.397 101.153 307.643 101.961 306.082 102.016L299.835 102.234C298.274 102.288 297.466 101.535 297.411 99.9731L296.754 81.1565C296.556 75.4828 296.041 71.9179 295.208 70.4617C294.376 69.0055 292.671 68.3224 290.094 68.4124C287.362 68.5078 285.343 69.6466 284.038 71.8289C282.732 73.9852 282.196 78.4076 282.43 85.0963L282.967 100.478C283.021 102.039 282.268 102.847 280.706 102.902L274.46 103.12Z" fill="#A4D3FF"/>
</g>
<g filter="url(#filter6_ddd_37_785)">
<path d="M349.833 103.176C348.271 103.231 347.468 102.608 347.423 101.306L347.319 98.3393C347.272 96.9859 347.756 95.5619 348.772 94.0672L365.422 69.4086L365.416 69.2525C364.379 69.3929 363.34 69.4813 362.299 69.5177L349.611 69.9608C348.05 70.0153 347.246 69.3919 347.201 68.0906L347.157 66.8414C347.05 63.7703 347.777 62.2075 349.339 62.153L376.353 61.2096C377.915 61.1551 378.718 61.7785 378.764 63.0798L378.859 65.8125C378.904 67.0878 378.393 68.5127 377.328 70.0873L360.569 94.9842L360.575 95.1403C361.95 94.9881 362.99 94.8997 363.692 94.8751L378.449 94.3598C380.011 94.3053 380.814 94.9287 380.859 96.23L380.996 100.134C381.041 101.435 380.283 102.113 378.722 102.168L349.833 103.176Z" fill="#EAD99D"/>
</g>
<g filter="url(#filter7_ddd_37_785)">
<path d="M316.137 70.5925C314.601 70.6462 313.811 70.0223 313.765 68.721L313.629 64.8172C313.583 63.5159 314.328 62.8384 315.864 62.7848L318.518 62.6921L318.471 61.3257C318.43 60.1546 318.666 59.078 319.179 58.0959L322.001 52.7208C322.539 51.7118 323.198 51.1937 323.979 51.1664L326.712 51.071C328.273 51.0164 329.081 51.7699 329.136 53.3315L329.449 62.3104L335.774 62.0895C337.309 62.0359 338.1 62.6598 338.145 63.961L338.281 67.8649C338.327 69.1662 337.582 69.8437 336.046 69.8973L329.722 70.1181L330.398 89.4813C330.491 92.136 330.74 94.0425 331.145 95.2009C331.575 96.3324 332.584 96.8705 334.172 96.815C334.979 96.7869 335.885 96.6249 336.891 96.3292C337.896 96.0075 338.68 95.7065 339.244 95.4262C340.14 94.978 340.749 95.2564 341.071 96.2614L342.398 100.671C342.663 101.548 342.347 102.21 341.451 102.658C340.605 103.079 339.434 103.471 337.935 103.836C336.463 104.227 334.973 104.448 333.463 104.501C329.742 104.631 326.54 103.974 323.857 102.53C321.175 101.086 319.75 97.9701 319.583 93.1813L318.791 70.4998L316.137 70.5925Z" fill="#E095C8"/>
</g>
<path d="M3 70.85H131.109M3 84.1947H131.109M3 97.5394H131.109" stroke="black" stroke-width="5.33788" stroke-linecap="round"/>
<path d="M542 70.85H670.109M542 84.1947H670.109M542 97.5394H670.109" stroke="black" stroke-width="5.33788" stroke-linecap="round"/>
<defs>
<filter id="filter0_ddd_37_785" x="166.371" y="40.2244" width="71.8198" height="69.4619" filterUnits="userSpaceOnUse" color-interpolation-filters="sRGB">
<feFlood flood-opacity="0" result="BackgroundImageFix"/>
<feColorMatrix in="SourceAlpha" type="matrix" values="0 0 0 0 0 0 0 0 0 0 0 0 0 0 0 0 0 0 127 0" result="hardAlpha"/>
<feOffset dx="-5" dy="6"/>
<feComposite in2="hardAlpha" operator="out"/>
<feColorMatrix type="matrix" values="0 0 0 0 0 0 0 0 0 0 0 0 0 0 0 0 0 0 1 0"/>
<feBlend mode="normal" in2="BackgroundImageFix" result="effect1_dropShadow_37_785"/>
<feColorMatrix in="SourceAlpha" type="matrix" values="0 0 0 0 0 0 0 0 0 0 0 0 0 0 0 0 0 0 127 0" result="hardAlpha"/>
<feOffset dx="6" dy="6"/>
<feComposite in2="hardAlpha" operator="out"/>
<feColorMatrix type="matrix" values="0 0 0 0 0 0 0 0 0 0 0 0 0 0 0 0 0 0 1 0"/>
<feBlend mode="normal" in2="effect1_dropShadow_37_785" result="effect2_dropShadow_37_785"/>
<feColorMatrix in="SourceAlpha" type="matrix" values="0 0 0 0 0 0 0 0 0 0 0 0 0 0 0 0 0 0 127 0" result="hardAlpha"/>
<feOffset dx="-7" dy="-2"/>
<feComposite in2="hardAlpha" operator="out"/>
<feColorMatrix type="matrix" values="0 0 0 0 0.358333 0 0 0 0 0.358333 0 0 0 0 0.358333 0 0 0 0.29 0"/>
<feBlend mode="normal" in2="effect2_dropShadow_37_785" result="effect3_dropShadow_37_785"/>
<feBlend mode="normal" in="SourceGraphic" in2="effect3_dropShadow_37_785" result="shape"/>
</filter>
<filter id="filter1_ddd_37_785" x="216.19" y="57.5924" width="49.894" height="51.7887" filterUnits="userSpaceOnUse" color-interpolation-filters="sRGB">
<feFlood flood-opacity="0" result="BackgroundImageFix"/>
<feColorMatrix in="SourceAlpha" type="matrix" values="0 0 0 0 0 0 0 0 0 0 0 0 0 0 0 0 0 0 127 0" result="hardAlpha"/>
<feOffset dx="-5" dy="6"/>
<feComposite in2="hardAlpha" operator="out"/>
<feColorMatrix type="matrix" values="0 0 0 0 0 0 0 0 0 0 0 0 0 0 0 0 0 0 1 0"/>
<feBlend mode="normal" in2="BackgroundImageFix" result="effect1_dropShadow_37_785"/>
<feColorMatrix in="SourceAlpha" type="matrix" values="0 0 0 0 0 0 0 0 0 0 0 0 0 0 0 0 0 0 127 0" result="hardAlpha"/>
<feOffset dx="6" dy="6"/>
<feComposite in2="hardAlpha" operator="out"/>
<feColorMatrix type="matrix" values="0 0 0 0 0 0 0 0 0 0 0 0 0 0 0 0 0 0 1 0"/>
<feBlend mode="normal" in2="effect1_dropShadow_37_785" result="effect2_dropShadow_37_785"/>
<feColorMatrix in="SourceAlpha" type="matrix" values="0 0 0 0 0 0 0 0 0 0 0 0 0 0 0 0 0 0 127 0" result="hardAlpha"/>
<feOffset dx="-7" dy="-2"/>
<feComposite in2="hardAlpha" operator="out"/>
<feColorMatrix type="matrix" values="0 0 0 0 0.358333 0 0 0 0 0.358333 0 0 0 0 0.358333 0 0 0 0.29 0"/>
<feBlend mode="normal" in2="effect2_dropShadow_37_785" result="effect3_dropShadow_37_785"/>
<feBlend mode="normal" in="SourceGraphic" in2="effect3_dropShadow_37_785" result="shape"/>
</filter>
<filter id="filter2_ddd_37_785" x="378.322" y="58.3678" width="53.9932" height="51.9318" filterUnits="userSpaceOnUse" color-interpolation-filters="sRGB">
<feFlood flood-opacity="0" result="BackgroundImageFix"/>
<feColorMatrix in="SourceAlpha" type="matrix" values="0 0 0 0 0 0 0 0 0 0 0 0 0 0 0 0 0 0 127 0" result="hardAlpha"/>
<feOffset dx="-5" dy="6"/>
<feComposite in2="hardAlpha" operator="out"/>
<feColorMatrix type="matrix" values="0 0 0 0 0 0 0 0 0 0 0 0 0 0 0 0 0 0 1 0"/>
<feBlend mode="normal" in2="BackgroundImageFix" result="effect1_dropShadow_37_785"/>
<feColorMatrix in="SourceAlpha" type="matrix" values="0 0 0 0 0 0 0 0 0 0 0 0 0 0 0 0 0 0 127 0" result="hardAlpha"/>
<feOffset dx="6" dy="6"/>
<feComposite in2="hardAlpha" operator="out"/>
<feColorMatrix type="matrix" values="0 0 0 0 0 0 0 0 0 0 0 0 0 0 0 0 0 0 1 0"/>
<feBlend mode="normal" in2="effect1_dropShadow_37_785" result="effect2_dropShadow_37_785"/>
<feColorMatrix in="SourceAlpha" type="matrix" values="0 0 0 0 0 0 0 0 0 0 0 0 0 0 0 0 0 0 127 0" result="hardAlpha"/>
<feOffset dx="-7" dy="-2"/>
<feComposite in2="hardAlpha" operator="out"/>
<feColorMatrix type="matrix" values="0 0 0 0 0.358333 0 0 0 0 0.358333 0 0 0 0 0.358333 0 0 0 0.29 0"/>
<feBlend mode="normal" in2="effect2_dropShadow_37_785" result="effect3_dropShadow_37_785"/>
<feBlend mode="normal" in="SourceGraphic" in2="effect3_dropShadow_37_785" result="shape"/>
</filter>
<filter id="filter3_ddd_37_785" x="469.374" y="39.6462" width="28.3777" height="70.7405" filterUnits="userSpaceOnUse" color-interpolation-filters="sRGB">
<feFlood flood-opacity="0" result="BackgroundImageFix"/>
<feColorMatrix in="SourceAlpha" type="matrix" values="0 0 0 0 0 0 0 0 0 0 0 0 0 0 0 0 0 0 127 0" result="hardAlpha"/>
<feOffset dx="-5" dy="6"/>
<feComposite in2="hardAlpha" operator="out"/>
<feColorMatrix type="matrix" values="0 0 0 0 0 0 0 0 0 0 0 0 0 0 0 0 0 0 1 0"/>
<feBlend mode="normal" in2="BackgroundImageFix" result="effect1_dropShadow_37_785"/>
<feColorMatrix in="SourceAlpha" type="matrix" values="0 0 0 0 0 0 0 0 0 0 0 0 0 0 0 0 0 0 127 0" result="hardAlpha"/>
<feOffset dx="6" dy="6"/>
<feComposite in2="hardAlpha" operator="out"/>
<feColorMatrix type="matrix" values="0 0 0 0 0 0 0 0 0 0 0 0 0 0 0 0 0 0 1 0"/>
<feBlend mode="normal" in2="effect1_dropShadow_37_785" result="effect2_dropShadow_37_785"/>
<feColorMatrix in="SourceAlpha" type="matrix" values="0 0 0 0 0 0 0 0 0 0 0 0 0 0 0 0 0 0 127 0" result="hardAlpha"/>
<feOffset dx="-7" dy="-2"/>
<feComposite in2="hardAlpha" operator="out"/>
<feColorMatrix type="matrix" values="0 0 0 0 0.358333 0 0 0 0 0.358333 0 0 0 0 0.358333 0 0 0 0.29 0"/>
<feBlend mode="normal" in2="effect2_dropShadow_37_785" result="effect3_dropShadow_37_785"/>
<feBlend mode="normal" in="SourceGraphic" in2="effect3_dropShadow_37_785" result="shape"/>
</filter>
<filter id="filter4_ddd_37_785" x="422.604" y="58.7673" width="53.9932" height="51.9318" filterUnits="userSpaceOnUse" color-interpolation-filters="sRGB">
<feFlood flood-opacity="0" result="BackgroundImageFix"/>
<feColorMatrix in="SourceAlpha" type="matrix" values="0 0 0 0 0 0 0 0 0 0 0 0 0 0 0 0 0 0 127 0" result="hardAlpha"/>
<feOffset dx="-5" dy="6"/>
<feComposite in2="hardAlpha" operator="out"/>
<feColorMatrix type="matrix" values="0 0 0 0 0 0 0 0 0 0 0 0 0 0 0 0 0 0 1 0"/>
<feBlend mode="normal" in2="BackgroundImageFix" result="effect1_dropShadow_37_785"/>
<feColorMatrix in="SourceAlpha" type="matrix" values="0 0 0 0 0 0 0 0 0 0 0 0 0 0 0 0 0 0 127 0" result="hardAlpha"/>
<feOffset dx="6" dy="6"/>
<feComposite in2="hardAlpha" operator="out"/>
<feColorMatrix type="matrix" values="0 0 0 0 0 0 0 0 0 0 0 0 0 0 0 0 0 0 1 0"/>
<feBlend mode="normal" in2="effect1_dropShadow_37_785" result="effect2_dropShadow_37_785"/>
<feColorMatrix in="SourceAlpha" type="matrix" values="0 0 0 0 0 0 0 0 0 0 0 0 0 0 0 0 0 0 127 0" result="hardAlpha"/>
<feOffset dx="-7" dy="-2"/>
<feComposite in2="hardAlpha" operator="out"/>
<feColorMatrix type="matrix" values="0 0 0 0 0.358333 0 0 0 0 0.358333 0 0 0 0 0.358333 0 0 0 0.29 0"/>
<feBlend mode="normal" in2="effect2_dropShadow_37_785" result="effect3_dropShadow_37_785"/>
<feBlend mode="normal" in="SourceGraphic" in2="effect3_dropShadow_37_785" result="shape"/>
</filter>
<filter id="filter5_ddd_37_785" x="263.106" y="42.3126" width="51.3182" height="66.8889" filterUnits="userSpaceOnUse" color-interpolation-filters="sRGB">
<feFlood flood-opacity="0" result="BackgroundImageFix"/>
<feColorMatrix in="SourceAlpha" type="matrix" values="0 0 0 0 0 0 0 0 0 0 0 0 0 0 0 0 0 0 127 0" result="hardAlpha"/>
<feOffset dx="-5" dy="6"/>
<feComposite in2="hardAlpha" operator="out"/>
<feColorMatrix type="matrix" values="0 0 0 0 0 0 0 0 0 0 0 0 0 0 0 0 0 0 1 0"/>
<feBlend mode="normal" in2="BackgroundImageFix" result="effect1_dropShadow_37_785"/>
<feColorMatrix in="SourceAlpha" type="matrix" values="0 0 0 0 0 0 0 0 0 0 0 0 0 0 0 0 0 0 127 0" result="hardAlpha"/>
<feOffset dx="6" dy="6"/>
<feComposite in2="hardAlpha" operator="out"/>
<feColorMatrix type="matrix" values="0 0 0 0 0 0 0 0 0 0 0 0 0 0 0 0 0 0 1 0"/>
<feBlend mode="normal" in2="effect1_dropShadow_37_785" result="effect2_dropShadow_37_785"/>
<feColorMatrix in="SourceAlpha" type="matrix" values="0 0 0 0 0 0 0 0 0 0 0 0 0 0 0 0 0 0 127 0" result="hardAlpha"/>
<feOffset dx="-7" dy="-2"/>
<feComposite in2="hardAlpha" operator="out"/>
<feColorMatrix type="matrix" values="0 0 0 0 0.358333 0 0 0 0 0.358333 0 0 0 0 0.358333 0 0 0 0.29 0"/>
<feBlend mode="normal" in2="effect2_dropShadow_37_785" result="effect3_dropShadow_37_785"/>
<feBlend mode="normal" in="SourceGraphic" in2="effect3_dropShadow_37_785" result="shape"/>
</filter>
<filter id="filter6_ddd_37_785" x="339.059" y="59.0951" width="48.0046" height="50.1631" filterUnits="userSpaceOnUse" color-interpolation-filters="sRGB">
<feFlood flood-opacity="0" result="BackgroundImageFix"/>
<feColorMatrix in="SourceAlpha" type="matrix" values="0 0 0 0 0 0 0 0 0 0 0 0 0 0 0 0 0 0 127 0" result="hardAlpha"/>
<feOffset dx="-5" dy="6"/>
<feComposite in2="hardAlpha" operator="out"/>
<feColorMatrix type="matrix" values="0 0 0 0 0 0 0 0 0 0 0 0 0 0 0 0 0 0 1 0"/>
<feBlend mode="normal" in2="BackgroundImageFix" result="effect1_dropShadow_37_785"/>
<feColorMatrix in="SourceAlpha" type="matrix" values="0 0 0 0 0 0 0 0 0 0 0 0 0 0 0 0 0 0 127 0" result="hardAlpha"/>
<feOffset dx="6" dy="6"/>
<feComposite in2="hardAlpha" operator="out"/>
<feColorMatrix type="matrix" values="0 0 0 0 0 0 0 0 0 0 0 0 0 0 0 0 0 0 1 0"/>
<feBlend mode="normal" in2="effect1_dropShadow_37_785" result="effect2_dropShadow_37_785"/>
<feColorMatrix in="SourceAlpha" type="matrix" values="0 0 0 0 0 0 0 0 0 0 0 0 0 0 0 0 0 0 127 0" result="hardAlpha"/>
<feOffset dx="-7" dy="-2"/>
<feComposite in2="hardAlpha" operator="out"/>
<feColorMatrix type="matrix" values="0 0 0 0 0.358333 0 0 0 0 0.358333 0 0 0 0 0.358333 0 0 0 0.29 0"/>
<feBlend mode="normal" in2="effect2_dropShadow_37_785" result="effect3_dropShadow_37_785"/>
<feBlend mode="normal" in="SourceGraphic" in2="effect3_dropShadow_37_785" result="shape"/>
</filter>
<filter id="filter7_ddd_37_785" x="306.165" y="48.572" width="42.7063" height="62.5721" filterUnits="userSpaceOnUse" color-interpolation-filters="sRGB">
<feFlood flood-opacity="0" result="BackgroundImageFix"/>
<feColorMatrix in="SourceAlpha" type="matrix" values="0 0 0 0 0 0 0 0 0 0 0 0 0 0 0 0 0 0 127 0" result="hardAlpha"/>
<feOffset dx="-5" dy="6"/>
<feComposite in2="hardAlpha" operator="out"/>
<feColorMatrix type="matrix" values="0 0 0 0 0 0 0 0 0 0 0 0 0 0 0 0 0 0 1 0"/>
<feBlend mode="normal" in2="BackgroundImageFix" result="effect1_dropShadow_37_785"/>
<feColorMatrix in="SourceAlpha" type="matrix" values="0 0 0 0 0 0 0 0 0 0 0 0 0 0 0 0 0 0 127 0" result="hardAlpha"/>
<feOffset dx="6" dy="6"/>
<feComposite in2="hardAlpha" operator="out"/>
<feColorMatrix type="matrix" values="0 0 0 0 0 0 0 0 0 0 0 0 0 0 0 0 0 0 1 0"/>
<feBlend mode="normal" in2="effect1_dropShadow_37_785" result="effect2_dropShadow_37_785"/>
<feColorMatrix in="SourceAlpha" type="matrix" values="0 0 0 0 0 0 0 0 0 0 0 0 0 0 0 0 0 0 127 0" result="hardAlpha"/>
<feOffset dx="-7" dy="-2"/>
<feComposite in2="hardAlpha" operator="out"/>
<feColorMatrix type="matrix" values="0 0 0 0 0.358333 0 0 0 0 0.358333 0 0 0 0 0.358333 0 0 0 0.29 0"/>
<feBlend mode="normal" in2="effect2_dropShadow_37_785" result="effect3_dropShadow_37_785"/>
<feBlend mode="normal" in="SourceGraphic" in2="effect3_dropShadow_37_785" result="shape"/>
</filter>
</defs>
</svg>
