<svg xmlns="http://www.w3.org/2000/svg" xmlns:xlink="http://www.w3.org/1999/xlink"
  viewBox="0 0 400 150" preserveAspectRatio="xMidYMid"
  style="display: block; shape-rendering: auto; background: transparent;" width="400" height="150">
  <style type="text/css">
    .ld-text text {
    text-anchor: middle;
    dominant-baseline: middle;
    font-size: 200px;
    opacity: 0;
    user-select: none;
    pointer-events: none;
    }
</style>
  <g style="transform-origin:200px 90px;transform:scale(1)" class="ld-text">
    <g transform="translate(200,90)">
      <g transform="scale(1.9) translate(0,0)">
        <g class="path"
          style="opacity: 1; transform-origin: -81.88px 11.05px; transform: matrix3d(1, 0, 0, 0, 0, 1, 0, 0, 0, 0, 1, 0, 0, 0, 0, 1); animation: 1s linear -0.565714s infinite normal forwards running animate-9rnvz7eo1yp; transform-box: view-box;">
          <path
            d="M31.20-10.05L31.20-10.05L30.88-13.01Q30.88-14.45 34.56-15.05Q38.24-15.65 41.76-15.65Q45.28-15.65 45.28-14.45L45.28-14.45Q45.28-13.89 44.48-13.09L44.48-13.09Q41.36-9.81 36.92-2.37Q32.48 5.07 29.60 10.91L29.60 10.91L26.72 16.67Q25.28 19.71 25.28 23.35Q25.28 26.99 25.52 30.55Q25.76 34.11 26 36.59Q26.24 39.07 26.24 39.47L26.24 39.47Q26.24 41.47 22.56 42.71Q18.88 43.95 16.52 43.95Q14.16 43.95 14.16 43.07L14.16 43.07L14.40 42.03Q15.76 34.75 15.76 24.75L15.76 24.75Q15.76 22.27 14.96 18.59L14.96 18.59L14.72 17.55Q9.60 3.71 5.12-2.85L5.12-2.85Q1.28-8.69-0.48-9.73L-0.48-9.73L-1.20-10.21Q-2-10.69-2-11.33L-2-11.33Q-2-12.69 2.16-14.13Q6.32-15.57 8.44-15.57Q10.56-15.57 11.28-14.29L11.28-14.29Q18.48 0.75 22.48 10.03L22.48 10.03Q22.72 10.51 23.16 10.51Q23.60 10.51 24.20 9.55Q24.80 8.59 26 6.51Q27.20 4.43 29.20-0.89Q31.20-6.21 31.20-10.05"
            style="fill: rgb(164, 211, 255);" transform="translate(-103.520,-20.977)"></path>
        </g>
        <g class="path"
          style="opacity: 1; transform-origin: -52.08px 14.57px; transform: matrix3d(1, 0, 0, 0, 0, 1, 0, 0, 0, 0, 1, 0, 0, 0, 0, 1); animation: 1s linear -0.471429s infinite normal forwards running animate-9rnvz7eo1yp; transform-box: view-box;">
          <path
            d="M64.32 17.95L64.32 17.95L64.16 28.19Q64.16 38.83 66.48 40.99L66.48 40.99Q66.80 41.31 66.80 41.71L66.80 41.71Q66.80 42.91 61.64 42.91Q56.48 42.91 56.16 39.87L56.16 39.87Q56.08 39.15 56.08 36.91L56.08 36.91L56.40 24.11Q56.40 23.55 55.76 23.55L55.76 23.55Q51.92 23.55 48.56 25.71Q45.20 27.87 45.20 31.23L45.20 31.23Q45.20 32.99 46.16 34.19Q47.12 35.39 48.52 35.39Q49.92 35.39 50.84 34.83Q51.76 34.27 51.92 34.19L51.92 34.19Q53.28 34.35 53.28 37.03Q53.28 39.71 50.80 41.35Q48.32 42.99 45.60 42.99Q42.88 42.99 40.92 42.03Q38.96 41.07 38.08 39.87Q37.20 38.67 36.64 37.15L36.64 37.15Q36.08 35.31 36.08 33.95L36.08 33.95Q36.08 28.35 39.60 24.99Q43.12 21.63 48.64 20.19L48.64 20.19Q55.92 18.75 56.24 17.55L56.24 17.55Q56.48 16.67 56.48 14.59L56.48 14.59Q56.48 10.35 52.16 10.35L52.16 10.35Q50.32 10.35 48.88 11.51Q47.44 12.67 47.44 14.43L47.44 14.43L47.92 16.35Q47.76 17.71 45.04 17.95L45.04 17.95L44.16 18.03Q41.76 18.03 40.36 16.83Q38.96 15.63 38.96 13.63L38.96 13.63Q38.96 12.35 39.80 10.79Q40.64 9.23 41.92 8.27Q43.20 7.31 45.88 6.55Q48.56 5.79 51.04 5.79Q53.52 5.79 54.88 5.95Q56.24 6.11 58.60 6.71Q60.96 7.31 62.52 8.99Q64.08 10.67 64.20 12.55Q64.32 14.43 64.32 17.95"
            style="fill: rgb(224, 149, 200);" transform="translate(-103.520,-20.977)"></path>
        </g>
        <g class="path"
          style="opacity: 1; transform-origin: -20.72px 11.17px; transform: matrix3d(1, 0, 0, 0, 0, 1, 0, 0, 0, 0, 1, 0, 0, 0, 0, 1); animation: 1s linear -0.377143s infinite normal forwards running animate-9rnvz7eo1yp; transform-box: view-box;">
          <path
            d="M78.72-1.01L78.72-1.01L78.64 6.75Q78.64 7.23 78.96 7.23Q79.28 7.23 79.60 6.99L79.60 6.99Q81.60 5.63 85.92 5.63L85.92 5.63Q93.20 5.63 96 10.59L96 10.59Q97.04 12.43 97.04 15.47Q97.04 18.51 96.68 23.87Q96.32 29.23 96.32 31.47L96.32 31.47Q96.32 39.31 98.56 41.87L98.56 41.87Q98.96 42.27 98.96 42.67L98.96 42.67Q98.96 43.47 95.52 43.47L95.52 43.47Q86.24 43.47 86.24 34.83L86.24 34.83Q86.24 31.47 87.84 25.39Q89.44 19.31 89.44 16.43Q89.44 13.55 88.08 11.99Q86.72 10.43 84.32 10.43Q81.92 10.43 80.52 11.47Q79.12 12.51 78.80 13.63L78.80 13.63L78.56 14.67Q78.48 16.19 78.48 24.35Q78.48 32.51 78.88 34.95Q79.28 37.39 79.28 37.71L79.28 37.71Q79.28 40.03 76.16 41.83Q73.04 43.63 70 43.63L70 43.63Q68.88 43.63 68.88 42.35L68.88 42.35L69.04 40.83Q70.80 27.39 70.80 11.71L70.80 11.71Q70.80 5.63 70.32-0.61L70.32-0.61L70.24-2.37Q70.08-4.61 69.32-6.21Q68.56-7.81 67.92-8.29L67.92-8.29L67.20-8.69Q66.64-9.01 66.64-9.41L66.64-9.41Q66.64-10.53 70.40-12.17Q74.16-13.81 76.20-13.81Q78.24-13.81 78.40-12.93L78.40-12.93Q78.72-8.85 78.72-1.01"
            style="fill: rgb(234, 217, 157);" transform="translate(-103.520,-20.977)"></path>
        </g>
        <g class="path"
          style="opacity: 1; transform-origin: 5.6px 13.42px; transform: matrix3d(1, 0, 0, 0, 0, 1, 0, 0, 0, 0, 1, 0, 0, 0, 0, 1); animation: 1s linear -0.282857s infinite normal forwards running animate-9rnvz7eo1yp; transform-box: view-box;">
          <path
            d="M100.16 10.75L100.16 10.75L100.40 7.55Q100.48 6.83 101.52 6.83L101.52 6.83L104.32 6.83L104 0.43L104 0.11Q104-1.73 106.80-3.41Q109.60-5.09 111.92-5.09L111.92-5.09Q112.64-5.09 112.64-4.45L112.64-4.45L112.64-4.37Q112.32-2.21 112 6.75L112 6.75Q115.52 6.75 116.48 6.59Q117.44 6.43 117.52 6.43L117.52 6.43Q118.08 6.43 118.08 7.39Q118.08 8.35 117.20 9.83Q116.32 11.31 115.28 11.39L115.28 11.39L111.92 11.39Q111.84 14.11 111.84 20.55Q111.84 26.99 111.96 31.15Q112.08 35.31 112.24 37.43Q112.40 39.55 112.60 40.83Q112.80 42.11 112.92 42.67Q113.04 43.23 113.04 43.39L113.04 43.39Q113.04 44.19 112 44.27L112 44.27Q108.88 44.27 105.80 43.39Q102.72 42.51 102.72 40.35L102.72 40.35Q104.40 26.91 104.40 11.47L104.40 11.47Q102.24 11.47 101.12 11.63L101.12 11.63L101.04 11.63Q100.32 11.63 100.16 10.75"
            style="fill: rgb(199, 185, 255);" transform="translate(-103.520,-20.977)"></path>
        </g>
        <g class="path"
          style="opacity: 1; transform-origin: 28.6px 14.59px; transform: matrix3d(1, 0, 0, 0, 0, 1, 0, 0, 0, 0, 1, 0, 0, 0, 0, 1); animation: 1s linear -0.188571s infinite normal forwards running animate-9rnvz7eo1yp; transform-box: view-box;">
          <path
            d="M123.28 6.59L137.12 6.75L145.84 6.51Q146.88 6.51 146.88 7.39L146.88 7.39Q146.88 8.99 141.84 16.83Q136.80 24.67 133.08 30.51Q129.36 36.35 129.36 37.55L129.36 37.55Q129.36 38.35 131.60 38.35Q133.84 38.35 135.52 37.67Q137.20 36.99 138 35.87L138 35.87Q139.36 33.95 139.36 32.35Q139.36 30.75 139.04 29.23L139.04 29.23Q139.04 28.27 140.80 28.11L140.80 28.11Q144.96 28.11 146.32 30.43L146.32 30.43Q147.36 32.27 147.36 34.19L147.36 34.19Q147.36 38.51 143.84 40.67Q140.32 42.83 135.52 42.83L135.52 42.83L126.40 42.59L118.32 42.75Q116.88 42.75 116.88 41.75Q116.88 40.75 119.48 36.51Q122.08 32.27 124.72 28.51L124.72 28.51L127.36 24.75Q134.08 14.19 134.52 13.35Q134.96 12.51 134.96 11.87L134.96 11.87Q134.96 10.75 132.64 10.75Q130.32 10.75 128.44 11.39Q126.56 12.03 125.36 12.95Q124.16 13.87 123.28 14.83L123.28 14.83Q121.68 16.59 121.68 17.07L121.68 17.07Q121.44 17.87 120.80 17.87L120.80 17.87L120.72 17.87Q119.60 17.87 119.60 16.51L119.60 16.51Q119.60 13.39 121.04 9.15L121.04 9.15L121.60 7.71Q121.92 6.59 123.28 6.59L123.28 6.59"
            style="fill: rgb(255, 133, 119);" transform="translate(-103.520,-20.977)"></path>
        </g>
        <g class="path"
          style="opacity: 1; transform-origin: 58.76px 14.93px; transform: matrix3d(1, 0, 0, 0, 0, 1, 0, 0, 0, 0, 1, 0, 0, 0, 0, 1); animation: 1s linear -0.0942857s infinite normal forwards running animate-9rnvz7eo1yp; transform-box: view-box;">
          <path
            d="M157.36 21.63L157.36 21.63L157.44 23.63Q157.44 24.11 158.08 24.11L158.08 24.11Q160.64 23.87 162.56 22.79Q164.48 21.71 165.44 20.35L165.44 20.35Q167.36 17.39 167.52 15.23L167.52 15.23L167.60 14.27Q167.60 9.95 164.16 9.95L164.16 9.95Q161.60 9.95 160 12.19L160 12.19Q157.36 15.71 157.36 21.63 zM174.80 32.27L174.80 32.27Q174.80 35.31 173.56 37.59Q172.32 39.87 170.76 40.95Q169.20 42.03 167.12 42.67L167.12 42.67Q164.48 43.47 162.08 43.47L162.08 43.47Q155.36 43.47 152.16 38.43Q148.96 33.39 148.96 25.59Q148.96 17.79 152.92 11.71Q156.88 5.63 164.80 5.63L164.80 5.63Q172 5.63 174.56 10.67L174.56 10.67Q175.60 12.59 175.60 14.31Q175.60 16.03 175.44 17.03Q175.28 18.03 174.32 20.03Q173.36 22.03 171.76 23.63Q170.16 25.23 166.72 26.67Q163.28 28.11 158.64 28.59L158.64 28.59Q158 28.59 158 29.15L158 29.15Q158 29.87 158.52 31.27Q159.04 32.67 159.68 33.63L159.68 33.63Q161.44 35.87 164.88 35.87L164.88 35.87Q168.32 35.87 170.72 33.63L170.72 33.63Q172 32.43 172.80 30.67L172.80 30.67Q173.12 30.03 173.64 30.03Q174.16 30.03 174.48 30.91Q174.80 31.79 174.80 32.27"
            style="fill: rgb(164, 211, 255);" transform="translate(-103.520,-20.977)"></path>
        </g>
        <g class="path"
          style="opacity: 1; transform-origin: 88.2px 14.93px; transform: matrix3d(1, 0, 0, 0, 0, 1, 0, 0, 0, 0, 1, 0, 0, 0, 0, 1); animation: 1s linear 0s infinite normal forwards running animate-9rnvz7eo1yp; transform-box: view-box;">
          <path
            d="M186.80 21.63L186.80 21.63L186.88 23.63Q186.88 24.11 187.52 24.11L187.52 24.11Q190.08 23.87 192 22.79Q193.92 21.71 194.88 20.35L194.88 20.35Q196.80 17.39 196.96 15.23L196.96 15.23L197.04 14.27Q197.04 9.95 193.60 9.95L193.60 9.95Q191.04 9.95 189.44 12.19L189.44 12.19Q186.80 15.71 186.80 21.63 zM204.24 32.27L204.24 32.27Q204.24 35.31 203 37.59Q201.76 39.87 200.20 40.95Q198.64 42.03 196.56 42.67L196.56 42.67Q193.92 43.47 191.52 43.47L191.52 43.47Q184.80 43.47 181.60 38.43Q178.40 33.39 178.40 25.59Q178.40 17.79 182.36 11.71Q186.32 5.63 194.24 5.63L194.24 5.63Q201.44 5.63 204 10.67L204 10.67Q205.04 12.59 205.04 14.31Q205.04 16.03 204.88 17.03Q204.72 18.03 203.76 20.03Q202.80 22.03 201.20 23.63Q199.60 25.23 196.16 26.67Q192.72 28.11 188.08 28.59L188.08 28.59Q187.44 28.59 187.44 29.15L187.44 29.15Q187.44 29.87 187.96 31.27Q188.48 32.67 189.12 33.63L189.12 33.63Q190.88 35.87 194.32 35.87L194.32 35.87Q197.76 35.87 200.16 33.63L200.16 33.63Q201.44 32.43 202.24 30.67L202.24 30.67Q202.56 30.03 203.08 30.03Q203.60 30.03 203.92 30.91Q204.24 31.79 204.24 32.27"
            style="fill: rgb(224, 149, 200);" transform="translate(-103.520,-20.977)"></path>
        </g>
      </g>
      <text x="50%" y="50%" fill="#a4d3ff" font-family="Aladin" font-size="180">Yahtzee</text>
    </g>
  </g>
  <style type="text/css">@keyframes animate-9rnvz7eo1yp { 0.00% {transform: translate(0.00px,0.00px)
    rotate(0.00deg) scale(1.00, 1.00) skew(0deg, 0.00deg) ;opacity: 1.00;}2.00%
    {animation-timing-function: cubic-bezier(0.20,0.39,0.50,0.97);transform:
    translate(0.00px,-1.08px) rotate(0.00deg) ;}36.00% {animation-timing-function:
    cubic-bezier(0.50,0.03,0.80,0.61);transform: translate(0.00px,-10.00px) rotate(0.00deg) ;}72.00%
    {transform: translate(0.00px,-0.12px) rotate(0.00deg) ;}74.00% {animation-timing-function:
    cubic-bezier(0.24,0.43,0.48,0.91);transform: translate(0.00px,0.00px) rotate(0.00deg)
    scale(1.00, 0.95) ;}86.00% {animation-timing-function:
    cubic-bezier(0.53,0.08,0.77,0.57);transform: translate(0.00px,0.00px) rotate(0.00deg)
    scale(1.00, 0.80) ;}100.00% {animation-timing-function:
    cubic-bezier(0.53,0.08,0.77,0.57);transform: translate(0.00px,0.00px) rotate(0.00deg)
    scale(1.00, 1.00) ;} }</style><!-- [ldio] generated by https://loading.io -->
</svg>
