<svg width="35" height="35" viewBox="0 0 35 35" fill="none" xmlns="http://www.w3.org/2000/svg">
<path fill-rule="evenodd" clip-rule="evenodd" d="M16.0415 26.2501L7.2915 26.2501C4.87526 26.2501 2.9165 24.2913 2.9165 21.8751L2.9165 7.29175C2.9165 4.8755 4.87526 2.91675 7.2915 2.91675L27.7082 2.91675C30.1244 2.91675 32.0832 4.8755 32.0832 7.29175L32.0832 21.8751C32.0832 24.2913 30.1244 26.2501 27.7082 26.2501L18.9582 26.2501L18.9582 29.1668L21.8748 29.1668C22.6803 29.1668 23.3332 29.8197 23.3332 30.6251C23.3332 31.4305 22.6803 32.0834 21.8748 32.0834L13.1248 32.0834C12.3194 32.0834 11.6665 31.4305 11.6665 30.6251C11.6665 29.8197 12.3194 29.1668 13.1248 29.1668L16.0415 29.1668L16.0415 26.2501ZM27.7082 5.83341L7.2915 5.83341C6.48609 5.83341 5.83317 6.48633 5.83317 7.29175L5.83317 21.8751C5.83317 22.6805 6.48609 23.3334 7.2915 23.3334L27.7082 23.3334C28.5136 23.3334 29.1665 22.6805 29.1665 21.8751L29.1665 7.29175C29.1665 6.48633 28.5136 5.83341 27.7082 5.83341Z" fill="black"/>
</svg>
