<svg width="35" height="35" viewBox="0 0 35 35" fill="none" xmlns="http://www.w3.org/2000/svg">
<path fill-rule="evenodd" clip-rule="evenodd" d="M17.5002 1.45825C8.64059 1.45825 1.4585 8.64035 1.4585 17.4999C1.4585 26.3595 8.64059 33.5416 17.5002 33.5416C26.3597 33.5416 33.5418 26.3595 33.5418 17.4999C33.5418 8.64035 26.3597 1.45825 17.5002 1.45825ZM3.66486 16.7707H10.5851C10.7313 12.342 12.188 8.764 13.6374 6.26511C14.2061 5.28455 14.7756 4.46677 15.2683 3.82459C8.91189 4.85404 4.00513 10.2084 3.66486 16.7707ZM10.6213 18.9582H3.72183C4.37322 25.1849 9.14898 30.1842 15.2682 31.1752C14.7755 30.5331 14.2061 29.7153 13.6374 28.7347C12.2684 26.3745 10.8929 23.0515 10.6213 18.9582ZM12.8142 18.9582H22.1861C21.9192 22.5738 20.6981 25.521 19.4707 27.6372C18.7768 28.8336 18.0842 29.7583 17.5694 30.3797L17.5002 30.4627L17.4309 30.3797C16.9161 29.7583 16.2235 28.8336 15.5296 27.6372C14.3022 25.521 13.0811 22.5739 12.8142 18.9582ZM22.2264 16.7707H12.7739C12.919 12.8211 14.2207 9.61942 15.5296 7.36262C16.2235 6.16626 16.9161 5.24153 17.4309 4.62018L17.5002 4.53714L17.5694 4.62018C18.0842 5.24153 18.7768 6.16626 19.4707 7.36262C20.7796 9.61942 22.0814 12.8211 22.2264 16.7707ZM24.379 18.9582C24.1074 23.0515 22.7319 26.3745 21.363 28.7347C20.7942 29.7153 20.2248 30.5331 19.7321 31.1752C25.8513 30.1842 30.6271 25.1849 31.2785 18.9582H24.379ZM31.3355 16.7707H24.4152C24.269 12.342 22.8123 8.764 21.363 6.26511C20.7942 5.28455 20.2248 4.46677 19.7321 3.82459C26.0884 4.85404 30.9952 10.2084 31.3355 16.7707Z" fill="black"/>
</svg>
