<svg width="28" height="28" viewBox="0 0 28 28" fill="none" xmlns="http://www.w3.org/2000/svg">
<path fill-rule="evenodd" clip-rule="evenodd" d="M14.2925 2.91508C14.2094 2.84875 14.1063 2.81261 14 2.81261C13.8937 2.81261 13.7906 2.84875 13.7075 2.91508L3.86375 10.7901C3.80861 10.8341 3.76411 10.89 3.73359 10.9537C3.70308 11.0173 3.68731 11.087 3.6875 11.1576V24.3182C3.6875 24.577 3.8975 24.787 4.15625 24.787H9.3125V14.9432C9.3125 14.5702 9.46066 14.2126 9.72438 13.9488C9.9881 13.6851 10.3458 13.537 10.7188 13.537H17.2812C17.6542 13.537 18.0119 13.6851 18.2756 13.9488C18.5394 14.2126 18.6875 14.5702 18.6875 14.9432V24.787H23.8438C23.9681 24.787 24.0873 24.7376 24.1752 24.6497C24.2632 24.5618 24.3125 24.4425 24.3125 24.3182V11.1557C24.3123 11.0855 24.2966 11.0161 24.266 10.9528C24.2354 10.8895 24.1912 10.8339 24.1362 10.7901L14.2925 2.91508ZM11.9488 0.719449C12.5306 0.253736 13.2537 0 13.9991 0C14.7444 0 15.4675 0.253736 16.0494 0.719449L25.8931 8.59446C26.6713 9.21694 27.125 10.1601 27.125 11.1576V24.3182C27.125 25.1884 26.7792 26.023 26.1639 26.6383C25.5485 27.2537 24.7139 27.5995 23.8438 27.5995H17.2812C16.9083 27.5995 16.5506 27.4513 16.2869 27.1875C16.0232 26.9239 15.875 26.5661 15.875 26.1932V16.3495H12.125V26.1932C12.125 26.5661 11.9768 26.9239 11.7131 27.1875C11.4494 27.4513 11.0917 27.5995 10.7188 27.5995H4.15625C3.28601 27.5995 2.45141 27.2537 1.83605 26.6383C1.22069 26.023 0.875 25.1884 0.875 24.3182V11.1557C0.875 10.1601 1.32875 9.21694 2.10687 8.59446L11.9488 0.719449Z" fill="#24292E"/>
</svg>
