<svg width="45" height="45" viewBox="0 0 45 45" fill="none" xmlns="http://www.w3.org/2000/svg">
<path d="M42.0406 38.1094L34.1305 18.9492C33.9844 18.5954 33.7366 18.2929 33.4184 18.08C33.1002 17.8672 32.726 17.7535 32.3432 17.7535C31.9604 17.7535 31.5862 17.8672 31.2681 18.08C30.9499 18.2929 30.7021 18.5954 30.556 18.9492L22.6458 38.1094C22.5475 38.3444 22.4965 38.5964 22.4959 38.8512C22.4952 39.1059 22.5449 39.3582 22.6421 39.5937C22.7393 39.8291 22.882 40.0431 23.0621 40.2232C23.2422 40.4033 23.4561 40.5461 23.6916 40.6433C23.927 40.7405 24.1794 40.7902 24.4341 40.7896C24.6888 40.789 24.9409 40.7381 25.1759 40.6397C25.4109 40.5414 25.6241 40.3976 25.8033 40.2166C25.9826 40.0356 26.1243 39.821 26.2203 39.5851L27.8314 35.6836H36.8551L38.4661 39.5851C38.6122 39.9391 38.86 40.2417 39.1783 40.4547C39.4966 40.6676 39.8709 40.7813 40.2538 40.7813C40.5716 40.7811 40.8844 40.7026 41.1645 40.5527C41.4447 40.4029 41.6837 40.1863 41.8602 39.9222C42.0368 39.658 42.1455 39.3544 42.1768 39.0383C42.2082 38.7221 42.1611 38.403 42.0398 38.1094H42.0406ZM29.4283 31.8164L32.3437 24.7544L35.259 31.8164H29.4283Z" fill="#24292E"/>
<path d="M23.5406 30.1395C23.841 29.7245 23.9645 29.2073 23.8839 28.7014C23.8033 28.1955 23.5253 27.7423 23.1108 27.4412C23.0933 27.428 21.7925 26.463 19.9037 24.3888C23.3886 19.6708 25.3626 14.3033 26.1677 11.7773H29.0039C29.5167 11.7773 30.0085 11.5736 30.3712 11.211C30.7338 10.8484 30.9375 10.3566 30.9375 9.84375C30.9375 9.33093 30.7338 8.83911 30.3712 8.47649C30.0085 8.11387 29.5167 7.91016 29.0039 7.91016H18.8086V6.15234C18.8086 5.63952 18.6049 5.14771 18.2423 4.78509C17.8796 4.42247 17.3878 4.21875 16.875 4.21875C16.3622 4.21875 15.8704 4.42247 15.5077 4.78509C15.1451 5.14771 14.9414 5.63952 14.9414 6.15234V7.91016H4.74609C4.23327 7.91016 3.74146 8.11387 3.37884 8.47649C3.01622 8.83911 2.8125 9.33093 2.8125 9.84375C2.8125 10.3566 3.01622 10.8484 3.37884 11.211C3.74146 11.5736 4.23327 11.7773 4.74609 11.7773H22.0825C21.2458 14.146 19.7051 17.8857 17.3549 21.3012C14.5942 17.6379 13.5686 15.2675 13.5606 15.2481C13.3585 14.7811 12.9805 14.4125 12.5084 14.2224C12.0363 14.0323 11.5083 14.036 11.0389 14.2326C10.5696 14.4292 10.1966 14.803 10.001 15.2728C9.8054 15.7426 9.80289 16.2706 9.99404 16.7423C10.045 16.8636 11.2729 19.7508 14.6399 24.1189C14.7208 24.2235 14.8008 24.3255 14.8808 24.4274C11.4319 28.3254 8.04814 30.7433 6.63223 31.5237C6.18199 31.7693 5.84775 32.1837 5.70303 32.6757C5.55832 33.1677 5.61498 33.697 5.86055 34.1473C6.10612 34.5975 6.52049 34.9317 7.01249 35.0765C7.5045 35.2212 8.03385 35.1645 8.48408 34.9189C8.67393 34.8152 12.7556 32.5556 17.4164 27.3964C19.3957 29.5128 20.7563 30.5112 20.838 30.5692C21.0436 30.7186 21.2767 30.826 21.5239 30.8852C21.7711 30.9444 22.0276 30.9543 22.2786 30.9143C22.5296 30.8743 22.7703 30.7852 22.9868 30.6521C23.2034 30.519 23.3916 30.3445 23.5406 30.1386V30.1395Z" fill="#24292E"/>
</svg>
