<svg width="50" height="50" viewBox="0 0 50 50" fill="none" xmlns="http://www.w3.org/2000/svg">
<path fill-rule="evenodd" clip-rule="evenodd" d="M24.9998 4.16669C36.5058 4.16669 45.8332 13.4941 45.8332 25C45.8332 36.5059 36.5058 45.8333 24.9998 45.8333C13.4939 45.8333 4.1665 36.5059 4.1665 25C4.1665 13.4941 13.4939 4.16669 24.9998 4.16669ZM24.9998 8.33336C15.7951 8.33336 8.33317 15.7953 8.33317 25C8.33317 34.2048 15.7951 41.6667 24.9998 41.6667C34.2046 41.6667 41.6665 34.2048 41.6665 25C41.6665 15.7953 34.2046 8.33336 24.9998 8.33336ZM21.8829 14.8672L34.3829 23.2005C35.68 23.9571 35.7563 25.7655 34.6118 26.6459L21.8829 35.1329C20.494 35.9431 18.7498 34.9412 18.7498 33.3334V16.6667C18.7498 15.0588 20.494 14.057 21.8829 14.8672Z" fill="black"/>
</svg>
