<svg width="24" height="26" viewBox="0 0 24 26" fill="none" xmlns="http://www.w3.org/2000/svg">
<path fill-rule="evenodd" clip-rule="evenodd" d="M16.6875 8.37506C16.6875 9.61826 16.1936 10.8105 15.3146 11.6896C14.4355 12.5687 13.2432 13.0626 12 13.0626C10.7568 13.0626 9.56452 12.5687 8.68545 11.6896C7.80635 10.8105 7.3125 9.61826 7.3125 8.37506C7.3125 7.13186 7.80635 5.93957 8.68545 5.06049C9.56452 4.18142 10.7568 3.68756 12 3.68756C13.2432 3.68756 14.4355 4.18142 15.3146 5.06049C16.1936 5.93957 16.6875 7.13186 16.6875 8.37506ZM16.8019 14.1369C17.9856 13.15 18.8364 11.8224 19.239 10.3347C19.6414 8.84698 19.5756 7.27143 19.0507 5.8224C18.5259 4.37336 17.5674 3.12118 16.3057 2.2362C15.044 1.35123 13.5402 0.876465 11.9991 0.876465C10.4579 0.876465 8.95415 1.35123 7.69241 2.2362C6.43067 3.12118 5.47216 4.37336 4.94735 5.8224C4.42252 7.27143 4.35682 8.84698 4.75921 10.3347C5.16161 11.8224 6.01254 13.15 7.19625 14.1369C5.35048 15.0096 3.77675 16.3677 2.64356 18.066C1.51036 19.7644 0.860358 21.7387 0.763121 23.7782C0.754083 24.1457 0.889271 24.5021 1.13977 24.771C1.39025 25.0401 1.73611 25.2004 2.10331 25.2174C2.4705 25.2347 2.8298 25.1074 3.10428 24.8629C3.37876 24.6184 3.54662 24.2762 3.57187 23.9094C3.6741 21.7429 4.60668 19.6989 6.17608 18.2019C7.74545 16.7048 9.83107 15.8696 12 15.8696C14.1689 15.8696 16.2546 16.7048 17.8239 18.2019C19.3933 19.6989 20.3259 21.7429 20.4281 23.9094C20.4328 24.0967 20.4746 24.2811 20.5515 24.4519C20.6284 24.6227 20.7386 24.7764 20.8757 24.9039C21.0127 25.0316 21.174 25.1306 21.3497 25.1951C21.5256 25.2596 21.7125 25.2883 21.8996 25.2795C22.0867 25.2709 22.2701 25.2247 22.4392 25.1441C22.6082 25.0635 22.7595 24.9501 22.884 24.8102C23.0087 24.6703 23.1039 24.507 23.1645 24.3298C23.2252 24.1526 23.2498 23.9649 23.2369 23.7782C23.1394 21.7386 22.4891 19.764 21.3557 18.0656C20.2221 16.3673 18.648 15.0093 16.8019 14.1369Z" fill="#24292E"/>
</svg>
