<svg width="33" height="33" viewBox="0 0 33 33" fill="none" xmlns="http://www.w3.org/2000/svg">
<path fill-rule="evenodd" clip-rule="evenodd" d="M10.7076 6.43934L13.8326 3.43934C14.4428 2.85355 15.4322 2.85355 16.0424 3.43934C16.6056 3.98007 16.6489 4.83091 16.1723 5.41935L16.0424 5.56066L15.5456 6.03453C15.8619 6.01156 16.1802 6 16.5 6C23.4036 6 29 11.3726 29 18C29 24.6274 23.4036 30 16.5 30C9.59644 30 4 24.6274 4 18C4 17.1716 4.69956 16.5 5.5625 16.5C6.42545 16.5 7.125 17.1716 7.125 18C7.125 22.9706 11.3223 27 16.5 27C21.6777 27 25.875 22.9706 25.875 18C25.875 13.0294 21.6777 9 16.5 9C16.2077 9 15.9174 9.0128 15.6296 9.03817L16.0424 9.43934C16.6525 10.0251 16.6525 10.9749 16.0424 11.5607C15.4791 12.1014 14.5928 12.143 13.9798 11.6854L13.8326 11.5607L10.7076 8.56066C10.1444 8.01993 10.1011 7.16909 10.5777 6.58065L10.7076 6.43934L13.8326 3.43934L10.7076 6.43934Z" fill="#313131" fill-opacity="0.4"/>
</svg>
