<svg width="38" height="38" viewBox="0 0 38 38" fill="none" xmlns="http://www.w3.org/2000/svg">
<path fill-rule="evenodd" clip-rule="evenodd" d="M5.9375 4.15625C5.9375 3.82833 6.20333 3.5625 6.53125 3.5625H26.7188C27.0467 3.5625 27.3125 3.82833 27.3125 4.15625V22.5303C27.3125 23.5141 28.11 24.3117 29.0938 24.3117C30.0775 24.3117 30.875 23.5141 30.875 22.5303V4.15625C30.875 1.86082 29.0142 0 26.7188 0H6.53125C4.23581 0 2.375 1.86082 2.375 4.15625V31.4687C2.375 33.7642 4.23581 35.625 6.53125 35.625H14.062C15.0457 35.625 15.8432 34.8275 15.8432 33.8437C15.8432 32.86 15.0457 32.0625 14.062 32.0625H6.53125C6.20333 32.0625 5.9375 31.7967 5.9375 31.4687V4.15625ZM11.2813 9.5C10.2975 9.5 9.5 10.2975 9.5 11.2812C9.5 12.265 10.2975 13.0625 11.2813 13.0625H21.9688C22.9525 13.0625 23.75 12.265 23.75 11.2812C23.75 10.2975 22.9525 9.5 21.9688 9.5H11.2813ZM9.5 18.4062C9.5 17.4225 10.2975 16.625 11.2813 16.625H16.0313C17.015 16.625 17.8125 17.4225 17.8125 18.4062C17.8125 19.39 17.015 20.1875 16.0313 20.1875H11.2813C10.2975 20.1875 9.5 19.39 9.5 18.4062ZM37.4633 26.8057C38.167 26.1183 38.1805 24.9905 37.4932 24.2867C36.8059 23.5829 35.678 23.5695 34.9743 24.2568L25.4132 33.5937L22.043 30.2114C21.3486 29.5146 20.2208 29.5127 19.524 30.2069C18.8271 30.9014 18.8251 32.0292 19.5195 32.7261L24.1343 37.3573C24.8237 38.0492 25.9419 38.0568 26.6406 37.3744L37.4633 26.8057Z" fill="#24292E"/>
</svg>
