<svg width="28" height="30" viewBox="0 0 28 30" fill="none" xmlns="http://www.w3.org/2000/svg">
<path fill-rule="evenodd" clip-rule="evenodd" d="M12.929 2.85883C13.2816 2.82818 13.6388 2.8125 14 2.8125C14.3612 2.8125 14.7184 2.82818 15.071 2.85883C15.1375 2.86461 15.2737 2.92779 15.3274 3.13299L15.8694 5.20541C16.1443 6.25643 16.8991 7.01769 17.7393 7.43387C18.0646 7.59501 18.3783 7.77662 18.6785 7.97706C19.4596 8.49864 20.4972 8.77192 21.5456 8.48432L23.6135 7.91691C23.8177 7.86086 23.9407 7.94683 23.9793 8.00171C24.389 8.58465 24.7486 9.20482 25.0524 9.85601C25.0801 9.91575 25.0938 10.0648 24.9429 10.214L23.4151 11.7236C22.6436 12.486 22.3608 13.5189 22.4202 14.4547C22.4317 14.6348 22.4375 14.8166 22.4375 15C22.4375 15.1834 22.4317 15.3652 22.4202 15.5453C22.3608 16.4811 22.6436 17.514 23.4151 18.2764L24.9429 19.7859C25.0938 19.9352 25.0801 20.0842 25.0524 20.1441C24.7486 20.7952 24.389 21.4153 23.9793 21.9982C23.9407 22.0532 23.8177 22.1391 23.6135 22.0832L21.5456 21.5156C20.4972 21.228 19.4596 21.5014 18.6785 22.023C18.3783 22.2234 18.0646 22.4049 17.7393 22.5662C16.8991 22.9823 16.1443 23.7435 15.8694 24.7946L15.3274 26.8671C15.2737 27.0722 15.1375 27.1354 15.071 27.1412C14.7184 27.1717 14.3612 27.1875 14 27.1875C13.6388 27.1875 13.2816 27.1717 12.929 27.1412C12.8624 27.1354 12.7263 27.0722 12.6726 26.8671L12.1306 24.7944C11.8557 23.7435 11.1009 22.9823 10.2607 22.5662C9.93539 22.4049 9.6218 22.2234 9.32163 22.023C8.54047 21.5014 7.50277 21.228 6.45457 21.5156L4.38646 22.0832C4.18226 22.1391 4.05924 22.0532 4.02065 21.9982C3.61102 21.4153 3.25134 20.7952 2.94768 20.1441C2.91982 20.0842 2.90615 19.9352 3.05707 19.7859L4.58497 18.2763C5.35657 17.5139 5.63937 16.481 5.57982 15.5452C5.56839 15.3651 5.56256 15.1833 5.56256 15C5.56256 14.8167 5.56839 14.6349 5.57982 14.4548C5.63937 13.519 5.35657 12.4861 4.58497 11.7237L3.05707 10.214C2.90615 10.0649 2.91982 9.91577 2.94768 9.85603C3.25134 9.20482 3.61102 8.58465 4.02067 8.00171C4.05924 7.94683 4.18226 7.86088 4.38646 7.91691L6.45457 8.48434C7.50277 8.77194 8.54047 8.49866 9.32163 7.97707C9.6218 7.77666 9.93539 7.59504 10.2607 7.43391C11.1009 7.01773 11.8557 6.25646 12.1306 5.20547L12.6726 3.13299C12.7263 2.92779 12.8624 2.86461 12.929 2.85883ZM14 0C13.5574 0 13.1189 0.0192094 12.6854 0.0568941C11.2927 0.177964 10.2686 1.20945 9.95161 2.42134L9.40957 4.49383C9.37683 4.61904 9.26163 4.79017 9.01237 4.91364C8.5781 5.12874 8.15986 5.37098 7.75985 5.63807C7.52926 5.79203 7.32374 5.80639 7.19876 5.77209L5.13065 5.20464C3.92458 4.87372 2.52176 5.24304 1.71952 6.38466C1.21565 7.10169 0.772805 7.86512 0.398688 8.66741C-0.191877 9.9339 0.190293 11.3352 1.08028 12.2146L2.60818 13.7243C2.70031 13.8154 2.79058 14.0002 2.77301 14.2762C2.75778 14.5157 2.75006 14.7571 2.75006 15C2.75006 15.2429 2.75778 15.4843 2.77301 15.7238C2.79058 15.9998 2.70031 16.1846 2.60818 16.2757L1.08028 17.7854C0.190291 18.6648 -0.191877 20.0661 0.398688 21.3326C0.772803 22.1349 1.21565 22.8983 1.71952 23.6152C2.52176 24.7569 3.92458 25.1263 5.13065 24.7954L7.19876 24.228C7.32374 24.1937 7.52928 24.2079 7.75985 24.3619C8.15986 24.6291 8.5781 24.8713 9.01237 25.0864C9.26163 25.2098 9.37683 25.3809 9.40957 25.5062L9.95161 27.5786C10.2686 28.7906 11.2927 29.8221 12.6854 29.9432C13.1189 29.9809 13.5574 30 14 30C14.4426 30 14.8811 29.9809 15.3146 29.9432C16.7073 29.8221 17.7314 28.7906 18.0483 27.5786L18.5904 25.5062C18.6232 25.3809 18.7383 25.2099 18.9877 25.0864C19.4219 24.8713 19.8403 24.6291 20.2402 24.3619C20.4708 24.2079 20.6763 24.1937 20.8014 24.228L22.8693 24.7954C24.0755 25.1263 25.4782 24.7569 26.2805 23.6154C26.7843 22.8983 27.2272 22.1349 27.6012 21.3326C28.1919 20.0661 27.8097 18.6648 26.9197 17.7854L25.3919 16.2758C25.2997 16.1848 25.2095 15.9999 25.2271 15.7239C25.2423 15.4843 25.25 15.243 25.25 15C25.25 14.757 25.2423 14.5156 25.2271 14.2761C25.2095 14.0001 25.2997 13.8152 25.3919 13.7242L26.9197 12.2146C27.8097 11.3352 28.1919 9.93388 27.6012 8.66739C27.2272 7.8651 26.7843 7.10168 26.2805 6.38466C25.4782 5.24302 24.0755 4.87372 22.8693 5.20464L20.8014 5.77206C20.6763 5.80635 20.4708 5.79201 20.2402 5.63805C19.8403 5.37094 19.4219 5.12869 18.9877 4.91357C18.7383 4.79012 18.6232 4.61899 18.5904 4.49376L18.0483 2.42134C17.7314 1.20945 16.7073 0.177961 15.3146 0.0568924C14.8811 0.0192088 14.4426 0 14 0ZM16.8125 15C16.8125 16.5533 15.5533 17.8125 14 17.8125C12.4467 17.8125 11.1875 16.5533 11.1875 15C11.1875 13.4467 12.4467 12.1875 14 12.1875C15.5533 12.1875 16.8125 13.4467 16.8125 15ZM19.625 15C19.625 18.1066 17.1066 20.625 14 20.625C10.8934 20.625 8.375 18.1066 8.375 15C8.375 11.8934 10.8934 9.375 14 9.375C17.1066 9.375 19.625 11.8934 19.625 15Z" fill="#24292E"/>
</svg>
