<svg width="41" height="38" viewBox="0 0 41 38" fill="none" xmlns="http://www.w3.org/2000/svg">
<path fill-rule="evenodd" clip-rule="evenodd" d="M19.3802 4.88699C19.7142 5.02836 19.9971 5.25501 20.1956 5.54011C20.3941 5.8252 20.4997 6.15678 20.5 6.49551V31.2965C20.5002 31.6354 20.395 31.967 20.1968 32.2526C19.9987 32.5379 19.7158 32.7649 19.3819 32.9066C19.048 33.0484 18.6769 33.0989 18.3128 33.0521C17.9487 33.0054 17.6068 32.8632 17.3276 32.6428L8.897 25.982H4.48438C3.29504 25.982 2.15443 25.5464 1.31344 24.7712C0.472458 23.996 0 22.9448 0 21.8485V15.9435C0 13.6618 2.009 11.81 4.48438 11.81H8.89956L17.3276 5.14917C17.6068 4.92927 17.9485 4.78772 18.3123 4.74125C18.676 4.69479 19.0466 4.74537 19.3802 4.88699ZM16.6562 10.3456L10.8599 14.9255C10.5118 15.201 10.0682 15.3526 9.60938 15.353H4.48438C4.31448 15.353 4.15153 15.4152 4.03138 15.5259C3.91125 15.6367 3.84375 15.7869 3.84375 15.9435V21.8485C3.84375 22.1744 4.13075 22.439 4.48438 22.439H9.60938C10.0679 22.4387 10.5114 22.5895 10.8599 22.8641L16.6562 27.4464V10.3456ZM32.2772 5.53182C32.6375 5.20007 33.1259 5.01373 33.6354 5.01373C34.1448 5.01373 34.6332 5.20007 34.9935 5.53182C36.8972 7.28647 38.4073 9.36961 39.4376 11.6622C40.468 13.9549 40.9982 16.4121 40.9982 18.8936C40.9982 21.3752 40.468 23.8323 39.4376 26.1251C38.4073 28.4177 36.8972 30.5007 34.9935 32.2554C34.6291 32.5684 34.1474 32.7387 33.6495 32.7307C33.1516 32.7224 32.6765 32.5365 32.3244 32.212C31.9723 31.8874 31.7706 31.4495 31.7617 30.9906C31.753 30.5317 31.9377 30.0876 32.2772 29.7517C33.8242 28.326 35.0512 26.6334 35.8883 24.7705C36.7257 22.9078 37.1565 20.9112 37.1565 18.8948C37.1565 16.8784 36.7257 14.8819 35.8883 13.019C35.0512 11.1562 33.8242 9.46357 32.2772 8.03789C31.9172 7.70573 31.7153 7.25548 31.7153 6.78604C31.7153 6.31659 31.9172 5.86634 32.2772 5.53418V5.53182ZM29.561 10.5416C29.2005 10.2093 28.7115 10.0226 28.2016 10.0226C27.6917 10.0226 27.2027 10.2093 26.8422 10.5416C26.4816 10.8739 26.2792 11.3247 26.2792 11.7947C26.2792 12.2646 26.4816 12.7154 26.8422 13.0477C27.675 13.8154 28.3359 14.7267 28.7866 15.7298C29.2374 16.7329 29.4695 17.8079 29.4695 18.8936C29.4695 19.9793 29.2374 21.0544 28.7866 22.0575C28.3359 23.0605 27.675 23.9719 26.8422 24.7396C26.6533 24.9018 26.5019 25.0974 26.3968 25.3147C26.2918 25.532 26.2354 25.7666 26.2308 26.0044C26.2262 26.2423 26.2738 26.4785 26.3704 26.6991C26.467 26.9197 26.6108 27.12 26.7935 27.2882C26.976 27.4566 27.1933 27.5891 27.4326 27.6781C27.6719 27.7672 27.9282 27.8111 28.1862 27.8069C28.4443 27.8026 28.6987 27.7506 28.9345 27.6538C29.1702 27.557 29.3824 27.4174 29.5584 27.2433C31.9605 25.0287 33.3097 22.0252 33.3097 18.8936C33.3097 15.762 31.9605 12.7587 29.5584 10.544L29.561 10.5416Z" fill="#24292E"/>
</svg>
