<svg width="67" height="67" viewBox="0 0 67 67" fill="none" xmlns="http://www.w3.org/2000/svg">
<path d="M51.0756 20.0698C51.8157 20.0698 52.4156 19.4698 52.4156 18.7298C52.4156 17.9897 51.8157 17.3898 51.0756 17.3898C50.3355 17.3898 49.7356 17.9897 49.7356 18.7298C49.7356 19.4698 50.3355 20.0698 51.0756 20.0698Z" fill="#24292E"/>
<path d="M33.6261 49.036C42.2063 49.036 49.162 42.0803 49.162 33.5C49.162 24.9197 42.2063 17.9641 33.6261 17.9641C25.0458 17.9641 18.0901 24.9197 18.0901 33.5C18.0901 42.0803 25.0458 49.036 33.6261 49.036Z" stroke="#24292E" stroke-width="4" stroke-miterlimit="10" stroke-linecap="round" stroke-linejoin="round"/>
<path d="M27.7715 12.3514C29.624 11.7886 31.5898 11.4857 33.6259 11.4857C35.648 11.4857 37.5997 11.7845 39.4402 12.3393" stroke="#24292E" stroke-width="4" stroke-miterlimit="10" stroke-linecap="round" stroke-linejoin="round"/>
<path d="M32.5916 33.8015L39.2246 27.1685" stroke="#24292E" stroke-width="4" stroke-miterlimit="10" stroke-linecap="round"/>
</svg>
