<svg width="37" height="43" viewBox="0 0 37 43" fill="none" xmlns="http://www.w3.org/2000/svg">
<path d="M35.0756 11.0698C35.8157 11.0698 36.4156 10.4698 36.4156 9.72977C36.4156 8.98971 35.8157 8.38977 35.0756 8.38977C34.3355 8.38977 33.7356 8.98971 33.7356 9.72977C33.7356 10.4698 34.3355 11.0698 35.0756 11.0698Z" fill="#24292E"/>
<path d="M17.6261 40.036C26.2063 40.036 33.162 33.0803 33.162 24.5C33.162 15.9197 26.2063 8.96405 17.6261 8.96405C9.04578 8.96405 2.09009 15.9197 2.09009 24.5C2.09009 33.0803 9.04578 40.036 17.6261 40.036Z" stroke="#24292E" stroke-width="4" stroke-miterlimit="10" stroke-linecap="round" stroke-linejoin="round"/>
<path d="M11.7715 3.35136C13.624 2.78856 15.5898 2.48572 17.6259 2.48572C19.648 2.48572 21.5997 2.78454 23.4402 3.3393" stroke="#24292E" stroke-width="4" stroke-miterlimit="10" stroke-linecap="round" stroke-linejoin="round"/>
<path d="M16.5916 24.8015L23.2246 18.1685" stroke="#24292E" stroke-width="4" stroke-miterlimit="10" stroke-linecap="round"/>
</svg>
