<svg width="28" height="26" viewBox="0 0 28 26" fill="none" xmlns="http://www.w3.org/2000/svg">
<path d="M23.551 1L4.44898 1C2.62785 1 1 2.37266 1 4.2449L1 21.7551C1 23.6273 2.62785 25 4.44898 25L23.551 25C25.3722 25 27 23.6273 27 21.7551L27 4.2449C27 2.37266 25.3722 1 23.551 1Z" fill="white" stroke="black" stroke-width="2"/>
<path d="M9.59188 6.93874C9.59188 8.05459 8.60509 8.95915 7.3878 8.95915C6.17052 8.95915 5.18372 8.05459 5.18372 6.93874C5.18372 5.8229 6.17052 4.91833 7.3878 4.91833C8.60509 4.91833 9.59188 5.8229 9.59188 6.93874Z" fill="black"/>
<path d="M9.59188 13C9.59188 14.1158 8.60509 15.0204 7.3878 15.0204C6.17052 15.0204 5.18372 14.1158 5.18372 13C5.18372 11.8841 6.17052 10.9796 7.3878 10.9796C8.60509 10.9796 9.59188 11.8841 9.59188 13Z" fill="black"/>
<path d="M22.8164 13C22.8164 14.1158 21.8296 15.0204 20.6123 15.0204C19.395 15.0204 18.4082 14.1158 18.4082 13C18.4082 11.8841 19.395 10.9796 20.6123 10.9796C21.8296 10.9796 22.8164 11.8841 22.8164 13Z" fill="black"/>
<path d="M9.59188 19.0612C9.59188 20.1771 8.60509 21.0816 7.3878 21.0816C6.17052 21.0816 5.18372 20.1771 5.18372 19.0612C5.18372 17.9454 6.17052 17.0408 7.3878 17.0408C8.60509 17.0408 9.59188 17.9454 9.59188 19.0612Z" fill="black"/>
<path d="M22.8164 6.93874C22.8164 8.05459 21.8296 8.95915 20.6123 8.95915C19.395 8.95915 18.4082 8.05459 18.4082 6.93874C18.4082 5.8229 19.395 4.91833 20.6123 4.91833C21.8296 4.91833 22.8164 5.8229 22.8164 6.93874Z" fill="black"/>
<path d="M22.8164 19.0612C22.8164 20.1771 21.8296 21.0816 20.6123 21.0816C19.395 21.0816 18.4082 20.1771 18.4082 19.0612C18.4082 17.9454 19.395 17.0408 20.6123 17.0408C21.8296 17.0408 22.8164 17.9454 22.8164 19.0612Z" fill="black"/>
</svg>
