<svg width="28" height="26" viewBox="0 0 28 26" fill="none" xmlns="http://www.w3.org/2000/svg">
<path d="M4.44898 1C2.62785 1 1 2.37266 1 4.2449V21.7551C1 23.6273 2.62785 25 4.44898 25H23.551C25.3722 25 27 23.6273 27 21.7551V4.2449C27 2.37266 25.3722 1 23.551 1H4.44898Z" fill="white" stroke="black" stroke-width="2"/>
<path d="M9.59188 6.9388C9.59188 8.05465 8.60509 8.95921 7.3878 8.95921C6.17052 8.95921 5.18372 8.05465 5.18372 6.9388C5.18372 5.82296 6.17052 4.9184 7.3878 4.9184C8.60509 4.9184 9.59188 5.82296 9.59188 6.9388Z" fill="black"/>
<path d="M9.59188 19.0612C9.59188 20.1771 8.60509 21.0816 7.3878 21.0816C6.17052 21.0816 5.18372 20.1771 5.18372 19.0612C5.18372 17.9454 6.17052 17.0408 7.3878 17.0408C8.60509 17.0408 9.59188 17.9454 9.59188 19.0612Z" fill="black"/>
<path d="M22.8164 6.9388C22.8164 8.05465 21.8296 8.95921 20.6123 8.95921C19.395 8.95921 18.4082 8.05465 18.4082 6.9388C18.4082 5.82296 19.395 4.9184 20.6123 4.9184C21.8296 4.9184 22.8164 5.82296 22.8164 6.9388Z" fill="black"/>
<path d="M22.8164 19.0612C22.8164 20.1771 21.8296 21.0816 20.6123 21.0816C19.395 21.0816 18.4082 20.1771 18.4082 19.0612C18.4082 17.9454 19.395 17.0408 20.6123 17.0408C21.8296 17.0408 22.8164 17.9454 22.8164 19.0612Z" fill="black"/>
</svg>
