<svg width="28" height="27" viewBox="0 0 28 27" fill="none" xmlns="http://www.w3.org/2000/svg">
<path d="M4.44898 1C2.5847 1 1 2.45879 1 4.34694L1 22.6531C1 24.5412 2.5847 26 4.44898 26H23.551C25.4153 26 27 24.5412 27 22.6531V4.34694C27 2.45879 25.4153 1 23.551 1L4.44898 1Z" fill="white" stroke="black" stroke-width="2"/>
<path d="M9.59194 7.16327C9.59194 8.32984 8.60515 9.27552 7.38786 9.27552C6.17058 9.27552 5.18378 8.32984 5.18378 7.16327C5.18378 5.99671 6.17058 5.05103 7.38786 5.05103C8.60515 5.05103 9.59194 5.99671 9.59194 7.16327Z" fill="black"/>
<path d="M16.2041 13.5C16.2041 14.6666 15.2173 15.6122 14 15.6122C12.7827 15.6122 11.7959 14.6666 11.7959 13.5C11.7959 12.3334 12.7827 11.3878 14 11.3878C15.2173 11.3878 16.2041 12.3334 16.2041 13.5Z" fill="black"/>
<path d="M9.59194 19.8367C9.59194 21.0033 8.60515 21.949 7.38786 21.949C6.17058 21.949 5.18378 21.0033 5.18378 19.8367C5.18378 18.6702 6.17058 17.7245 7.38786 17.7245C8.60515 17.7245 9.59194 18.6702 9.59194 19.8367Z" fill="black"/>
<path d="M22.8165 7.16327C22.8165 8.32984 21.8297 9.27552 20.6124 9.27552C19.3951 9.27552 18.4083 8.32984 18.4083 7.16327C18.4083 5.99671 19.3951 5.05103 20.6124 5.05103C21.8297 5.05103 22.8165 5.99671 22.8165 7.16327Z" fill="black"/>
<path d="M22.8165 19.8367C22.8165 21.0033 21.8297 21.949 20.6124 21.949C19.3951 21.949 18.4083 21.0033 18.4083 19.8367C18.4083 18.6702 19.3951 17.7245 20.6124 17.7245C21.8297 17.7245 22.8165 18.6702 22.8165 19.8367Z" fill="black"/>
</svg>
