<svg width="28" height="27" viewBox="0 0 28 27" fill="none" xmlns="http://www.w3.org/2000/svg">
<path d="M4.44898 1C2.5847 1 1 2.45879 1 4.34694L1 22.6531C1 24.5412 2.5847 26 4.44898 26H23.551C25.4153 26 27 24.5412 27 22.6531V4.34694C27 2.45879 25.4153 1 23.551 1L4.44898 1Z" fill="white" stroke="black" stroke-width="2"/>
<path d="M16.2039 13.5C16.2039 14.6666 15.2171 15.6122 13.9999 15.6122C12.7826 15.6122 11.7958 14.6666 11.7958 13.5C11.7958 12.3334 12.7826 11.3878 13.9999 11.3878C15.2171 11.3878 16.2039 12.3334 16.2039 13.5Z" fill="black"/>
<path d="M9.59188 19.8367C9.59188 21.0033 8.60509 21.949 7.3878 21.949C6.17052 21.949 5.18372 21.0033 5.18372 19.8367C5.18372 18.6702 6.17052 17.7245 7.3878 17.7245C8.60509 17.7245 9.59188 18.6702 9.59188 19.8367Z" fill="black"/>
<path d="M22.8164 7.16327C22.8164 8.32984 21.8296 9.27552 20.6123 9.27552C19.395 9.27552 18.4082 8.32984 18.4082 7.16327C18.4082 5.99671 19.395 5.05103 20.6123 5.05103C21.8296 5.05103 22.8164 5.99671 22.8164 7.16327Z" fill="black"/>
</svg>
