<svg width="29" height="27" viewBox="0 0 29 27" fill="none" xmlns="http://www.w3.org/2000/svg">
<path d="M4.55102 1C2.66998 1 1 2.42161 1 4.34694L1 22.6531C1 24.5784 2.66998 26 4.55102 26L24.449 26C26.33 26 28 24.5784 28 22.6531L28 4.34694C28 2.42161 26.33 1 24.449 1L4.55102 1Z" fill="white" stroke="black" stroke-width="2"/>
<path d="M9.90812 19.8367C9.90812 21.0033 8.88021 21.949 7.6122 21.949C6.3442 21.949 5.31628 21.0033 5.31628 19.8367C5.31628 18.6702 6.3442 17.7245 7.6122 17.7245C8.88021 17.7245 9.90812 18.6702 9.90812 19.8367Z" fill="black"/>
<path d="M23.6836 7.16327C23.6836 8.32984 22.6557 9.27552 21.3877 9.27552C20.1196 9.27552 19.0917 8.32984 19.0917 7.16327C19.0917 5.99671 20.1196 5.05103 21.3877 5.05103C22.6557 5.05103 23.6836 5.99671 23.6836 7.16327Z" fill="black"/>
</svg>
